<svg width="378" height="230" viewBox="0 0 378 230" fill="none" xmlns="http://www.w3.org/2000/svg">
<g id="logored">
<g id="ageTsel">
<path id="Vector" d="M377.943 174.155V214.035H368.728V174.155H377.943Z" fill="#8B0000"/>
<path id="Vector_2" d="M363.872 198.514C363.872 199.376 363.818 200.275 363.71 201.209H342.854C342.998 203.077 343.591 204.514 344.633 205.52C345.71 206.49 347.022 206.975 348.567 206.975C350.866 206.975 352.465 206.005 353.363 204.065H363.172C362.669 206.041 361.752 207.82 360.423 209.4C359.13 210.981 357.495 212.221 355.519 213.119C353.543 214.017 351.333 214.466 348.89 214.466C345.944 214.466 343.321 213.838 341.022 212.58C338.722 211.323 336.926 209.526 335.633 207.191C334.339 204.855 333.692 202.125 333.692 198.999C333.692 195.873 334.321 193.143 335.579 190.807C336.872 188.472 338.668 186.676 340.968 185.418C343.267 184.161 345.908 183.532 348.89 183.532C351.8 183.532 354.387 184.143 356.651 185.364C358.914 186.586 360.675 188.328 361.932 190.592C363.225 192.855 363.872 195.496 363.872 198.514ZM354.441 196.089C354.441 194.508 353.902 193.251 352.824 192.316C351.746 191.382 350.399 190.915 348.782 190.915C347.237 190.915 345.926 191.364 344.848 192.263C343.806 193.161 343.159 194.436 342.908 196.089H354.441Z" fill="#8B0000"/>
<path id="Vector_3" d="M317.706 214.466C315.083 214.466 312.748 214.017 310.7 213.119C308.652 212.221 307.035 210.999 305.849 209.454C304.664 207.873 303.999 206.113 303.855 204.173H312.963C313.071 205.215 313.556 206.059 314.418 206.706C315.281 207.352 316.341 207.676 317.598 207.676C318.748 207.676 319.628 207.46 320.239 207.029C320.885 206.562 321.209 205.969 321.209 205.251C321.209 204.388 320.76 203.76 319.862 203.364C318.963 202.933 317.508 202.466 315.496 201.963C313.341 201.46 311.544 200.939 310.107 200.4C308.67 199.825 307.43 198.945 306.388 197.76C305.346 196.538 304.826 194.903 304.826 192.855C304.826 191.131 305.293 189.568 306.227 188.167C307.197 186.73 308.598 185.598 310.43 184.772C312.299 183.945 314.508 183.532 317.059 183.532C320.832 183.532 323.796 184.466 325.951 186.334C328.143 188.203 329.4 190.682 329.724 193.772H321.209C321.065 192.73 320.598 191.903 319.808 191.292C319.053 190.682 318.047 190.376 316.79 190.376C315.712 190.376 314.885 190.592 314.311 191.023C313.736 191.418 313.448 191.975 313.448 192.694C313.448 193.556 313.897 194.203 314.796 194.634C315.73 195.065 317.167 195.496 319.107 195.927C321.335 196.502 323.149 197.077 324.55 197.652C325.951 198.191 327.173 199.089 328.215 200.346C329.293 201.568 329.85 203.221 329.886 205.305C329.886 207.065 329.383 208.646 328.377 210.047C327.406 211.412 325.987 212.49 324.119 213.281C322.287 214.071 320.149 214.466 317.706 214.466Z" fill="#8B0000"/>
<path id="Vector_4" d="M300.845 176.203V183.586H290.821V214.035H281.605V183.586H271.581V176.203H300.845Z" fill="#8B0000"/>
<path id="Vector_5" d="M268.767 198.514C268.767 199.376 268.713 200.275 268.605 201.209H247.749C247.892 203.077 248.485 204.514 249.527 205.52C250.605 206.49 251.916 206.975 253.461 206.975C255.761 206.975 257.359 206.005 258.258 204.065H268.066C267.563 206.041 266.647 207.82 265.318 209.4C264.024 210.981 262.389 212.221 260.413 213.119C258.437 214.017 256.228 214.466 253.785 214.466C250.838 214.466 248.216 213.838 245.916 212.58C243.617 211.323 241.82 209.526 240.527 207.191C239.234 204.855 238.587 202.125 238.587 198.999C238.587 195.873 239.216 193.143 240.473 190.807C241.767 188.472 243.563 186.676 245.862 185.418C248.162 184.161 250.803 183.532 253.785 183.532C256.695 183.532 259.282 184.143 261.545 185.364C263.809 186.586 265.569 188.328 266.827 190.592C268.12 192.855 268.767 195.496 268.767 198.514ZM259.336 196.089C259.336 194.508 258.797 193.251 257.719 192.316C256.641 191.382 255.294 190.915 253.677 190.915C252.132 190.915 250.82 191.364 249.743 192.263C248.701 193.161 248.054 194.436 247.803 196.089H259.336Z" fill="#8B0000"/>
<path id="Vector_6" d="M215.268 183.532C217.388 183.532 219.238 183.963 220.819 184.825C222.436 185.688 223.676 186.819 224.538 188.221V183.963H233.753V213.981C233.753 216.748 233.197 219.245 232.083 221.472C231.005 223.736 229.334 225.532 227.071 226.862C224.843 228.191 222.059 228.856 218.717 228.856C214.262 228.856 210.651 227.796 207.885 225.676C205.119 223.592 203.538 220.754 203.142 217.161H212.25C212.538 218.311 213.22 219.209 214.298 219.855C215.376 220.538 216.705 220.879 218.286 220.879C220.19 220.879 221.699 220.323 222.813 219.209C223.963 218.131 224.538 216.388 224.538 213.981V209.724C223.64 211.125 222.4 212.275 220.819 213.173C219.238 214.035 217.388 214.466 215.268 214.466C212.789 214.466 210.544 213.838 208.532 212.58C206.52 211.287 204.921 209.472 203.735 207.137C202.586 204.766 202.011 202.035 202.011 198.945C202.011 195.855 202.586 193.143 203.735 190.807C204.921 188.472 206.52 186.676 208.532 185.418C210.544 184.161 212.789 183.532 215.268 183.532ZM224.538 198.999C224.538 196.7 223.891 194.885 222.598 193.556C221.34 192.227 219.795 191.562 217.963 191.562C216.131 191.562 214.568 192.227 213.274 193.556C212.017 194.849 211.388 196.646 211.388 198.945C211.388 201.245 212.017 203.077 213.274 204.442C214.568 205.772 216.131 206.436 217.963 206.436C219.795 206.436 221.34 205.772 222.598 204.442C223.891 203.113 224.538 201.299 224.538 198.999Z" fill="#8B0000"/>
<path id="Vector_7" d="M165.434 198.945C165.434 195.855 166.008 193.143 167.158 190.807C168.344 188.472 169.943 186.676 171.955 185.418C173.967 184.161 176.212 183.532 178.691 183.532C180.811 183.532 182.661 183.963 184.242 184.825C185.859 185.688 187.098 186.819 187.961 188.221V183.963H197.176V214.035H187.961V209.778C187.062 211.179 185.805 212.311 184.188 213.173C182.607 214.035 180.757 214.466 178.637 214.466C176.194 214.466 173.967 213.838 171.955 212.58C169.943 211.287 168.344 209.472 167.158 207.137C166.008 204.766 165.434 202.035 165.434 198.945ZM187.961 198.999C187.961 196.7 187.314 194.885 186.021 193.556C184.763 192.227 183.218 191.562 181.386 191.562C179.553 191.562 177.991 192.227 176.697 193.556C175.44 194.849 174.811 196.646 174.811 198.945C174.811 201.245 175.44 203.077 176.697 204.442C177.991 205.772 179.553 206.436 181.386 206.436C183.218 206.436 184.763 205.772 186.021 204.442C187.314 203.113 187.961 201.299 187.961 198.999Z" fill="#8B0000"/>
</g>
<g id="logo">
<g id="Group">
<g id="Group_2">
<path id="Vector_8" d="M94.6572 146.163C100.124 146.163 104.557 141.731 104.557 136.264C104.557 130.796 100.124 126.364 94.6572 126.364C89.1899 126.364 84.7578 130.796 84.7578 136.264C84.7578 141.731 89.1899 146.163 94.6572 146.163Z" fill="#8B0000"/>
</g>
<g id="Group_3">
<path id="Vector_9" d="M141.861 146.163C147.329 146.163 151.761 141.731 151.761 136.264C151.761 130.796 147.329 126.364 141.861 126.364C136.394 126.364 131.962 130.796 131.962 136.264C131.962 141.731 136.394 146.163 141.861 146.163Z" fill="#8B0000"/>
</g>
<path id="Vector_10" fill-rule="evenodd" clip-rule="evenodd" d="M168.143 137.007C168.143 95.7769 134.725 62.3591 93.5033 62.3591C93.4145 62.3591 93.3257 62.3591 93.2355 62.3591C72.3293 62.3591 52.2801 70.6811 37.5087 85.4695C22.736 100.258 14.4534 120.324 14.4835 141.226C14.524 168.177 14.5671 196.343 14.5958 215.612C14.6037 220.563 17.1407 225.149 21.3199 227.775C25.499 230.414 30.7351 230.727 35.1938 228.598C44.0524 224.378 52.7909 215.194 61.6613 212.49C74.6782 208.506 91.1336 209.707 103.261 208.767C141.794 205.697 168.1 175.663 168.1 137.007C168.143 137.007 168.143 137.007 168.143 137.007ZM165.142 136.092L165.143 136.275C165.143 139.515 164.528 142.598 163.394 145.42L163.373 145.472C159.832 154.421 151.255 160.822 141.15 161.188V161.214H141.148C136.814 161.214 132.574 159.947 128.939 157.595C125.028 154.996 120.331 153.493 115.286 153.493C110.241 153.493 105.544 154.996 101.619 157.569C97.9882 159.934 93.7516 161.188 89.4222 161.188C89.4222 161.214 89.4222 161.214 89.4222 161.214V161.188C79.2963 160.822 70.7067 154.395 67.1782 145.42L67.1521 145.354C66.0338 142.546 65.4289 139.489 65.4289 136.275C65.4289 134.302 65.6602 132.369 66.1253 130.527L66.141 130.462C68.6701 119.788 78.084 111.793 89.4222 111.375V111.349C89.4222 111.349 89.4222 111.349 89.4222 111.375C93.7516 111.375 97.9882 112.629 101.619 114.994C105.544 117.567 110.241 119.07 115.286 119.07C120.331 119.07 125.028 117.567 128.939 114.968C132.574 112.603 136.814 111.349 141.148 111.349H141.15V111.375C152.511 111.793 161.939 119.828 164.446 130.527L164.458 130.566C164.9 132.343 165.129 134.198 165.142 136.092Z" fill="#8B0000"/>
</g>
<g id="Group_4">
<path id="Vector_11" fill-rule="evenodd" clip-rule="evenodd" d="M41.6903 61.4847C34.0184 61.667 26.5493 57.5235 22.8588 50.2369C17.7392 40.1285 21.7908 27.7702 31.898 22.6512C42.0052 17.5322 54.3653 21.5783 59.4849 31.6868C63.1754 38.9733 62.0962 47.4464 57.4097 53.5232L54.9389 48.6447C57.4071 44.2272 57.7003 38.6892 55.2421 33.8356C51.3103 26.0725 41.8107 22.9573 34.045 26.8904C26.2794 30.8235 23.1698 40.3249 27.1016 48.0881C29.5598 52.9416 34.1966 55.9827 39.2195 56.6062L41.6903 61.4847Z" fill="#8B0000"/>
</g>
<g id="Group_5">
<path id="Vector_12" fill-rule="evenodd" clip-rule="evenodd" d="M40.0294 67.9557L42.1779 72.1977C30.6685 72.4769 19.4609 66.2623 13.9184 55.3188C6.23901 40.1564 12.3153 21.6005 27.4823 13.9188C42.6505 6.23651 61.2036 12.3183 68.8829 27.4807C74.4255 38.4241 72.8038 51.1364 65.7699 60.249L63.6214 56.0069C68.7483 48.241 69.6828 38.0147 65.185 29.134C58.515 15.9646 42.3989 10.6839 29.2236 17.3568C16.0483 24.0298 10.7704 40.1459 17.4404 53.3154C21.9383 62.1961 30.7352 67.4936 40.0294 67.9557Z" fill="#8B0000"/>
</g>
<g id="Group_6">
<path id="Vector_13" fill-rule="evenodd" clip-rule="evenodd" d="M40.6528 49.9654C37.0677 49.936 33.6256 47.9598 31.8961 44.5451C29.4288 39.6735 31.3786 33.707 36.2524 31.2385C41.1275 28.7694 47.0911 30.728 49.5584 35.5996C51.2879 39.0143 50.8431 42.9591 48.7467 45.866L61.6854 71.4127L53.5915 75.512L40.6528 49.9654Z" fill="#8B0000"/>
</g>
</g>
</g>
</svg>
