<svg width="45" height="53" viewBox="0 0 45 53" fill="none" xmlns="http://www.w3.org/2000/svg">
<path d="M20 32.8095V53H0C0 47.6452 2.10714 42.5096 5.85786 38.7232C9.60859 34.9367 14.6957 32.8095 20 32.8095ZM20 30.2857C11.7125 30.2857 5 23.5093 5 15.1429C5 6.77643 11.7125 0 20 0C28.2875 0 35 6.77643 35 15.1429C35 23.5093 28.2875 30.2857 20 30.2857ZM42.5 40.381H45V53H25V40.381H27.5V37.8571C27.5 35.8491 28.2902 33.9233 29.6967 32.5033C31.1032 31.0834 33.0109 30.2857 35 30.2857C36.9891 30.2857 38.8968 31.0834 40.3033 32.5033C41.7098 33.9233 42.5 35.8491 42.5 37.8571V40.381ZM37.5 40.381V37.8571C37.5 37.1878 37.2366 36.5458 36.7678 36.0725C36.2989 35.5992 35.663 35.3333 35 35.3333C34.337 35.3333 33.7011 35.5992 33.2322 36.0725C32.7634 36.5458 32.5 37.1878 32.5 37.8571V40.381H37.5Z" fill="white"/>
</svg>
