<svg width="420" height="226" viewBox="0 0 420 226" fill="none" xmlns="http://www.w3.org/2000/svg">
<g id="analogPressure">
<g id="jarum">
<path id="Vector" fill-rule="evenodd" clip-rule="evenodd" d="M204.971 205.82C201.817 204.19 199.66 200.895 199.66 197.103C199.66 193.742 201.357 190.771 203.94 189.003L209.629 82.5659L215.331 189.245C217.723 191.033 219.273 193.889 219.273 197.103C219.273 200.914 217.096 204.22 213.92 205.843L214.693 225.5L209.285 219.516L203.932 225.254L204.971 205.82ZM209.466 192.783C211.851 192.783 213.787 194.717 213.787 197.103C213.787 199.488 211.851 201.423 209.466 201.423C207.082 201.423 205.146 199.488 205.146 197.103C205.146 194.717 207.082 192.783 209.466 192.783Z" fill="#4E5558"/>
</g>
<g id="parameter">
<path id="Vector_2" d="M10.8382 205.33C12.0491 154.03 32.5956 105.98 69.0082 69.567C106.557 32.018 156.482 11.3384 209.584 11.3384C262.687 11.3384 312.612 32.018 350.16 69.567C386.573 105.98 407.12 154.03 408.33 205.33H419.167C417.956 151.134 396.285 100.363 357.824 61.9029C318.228 22.3062 265.582 0.499756 209.584 0.499756C153.587 0.499756 100.941 22.3062 61.3441 61.9029C22.8843 100.363 1.21297 151.134 0 205.33H10.8382Z" fill="#0081D1"/>
<path id="Vector_3" d="M211.11 22.9658H208.059V56.3686H211.11V22.9658Z" fill="#4E5558"/>
<path id="Vector_4" d="M344.394 135.081L342.869 132.443L371.798 115.739L373.324 118.378L344.394 135.081Z" fill="#4E5558"/>
<path id="Vector_5" d="M288.3 77.8697L285.661 76.3435L302.363 47.4119L305.003 48.9371L288.3 77.8697Z" fill="#4E5558"/>
<path id="Vector_6" d="M74.7748 135.081L45.8462 118.378L47.3709 115.739L76.2996 132.443L74.7748 135.081Z" fill="#4E5558"/>
<path id="Vector_7" d="M130.869 77.8697L114.167 48.9371L116.806 47.4119L133.508 76.3435L130.869 77.8697Z" fill="#4E5558"/>
<path id="Vector_8" d="M189.736 36.8804L188.399 24.1577L191.431 23.8364L192.769 36.5591L189.736 36.8804Z" fill="#4E5558"/>
<path id="Vector_9" d="M171.624 39.9073L168.967 27.3913L171.953 26.7603L174.609 39.2753L171.624 39.9073Z" fill="#4E5558"/>
<path id="Vector_10" d="M153.934 44.8151L149.984 32.6453L152.885 31.7041L156.834 43.8738L153.934 44.8151Z" fill="#4E5558"/>
<path id="Vector_11" d="M136.85 51.5434L131.652 39.853L134.44 38.613L139.637 50.3039L136.85 51.5434Z" fill="#4E5558"/>
<path id="Vector_12" d="M229.432 36.8801L226.4 36.5589L227.737 23.8362L230.77 24.1574L229.432 36.8801Z" fill="#4E5558"/>
<path id="Vector_13" d="M247.544 39.9073L244.559 39.2753L247.215 26.7603L250.201 27.3913L247.544 39.9073Z" fill="#4E5558"/>
<path id="Vector_14" d="M265.235 44.8151L262.334 43.8738L266.284 31.7041L269.184 32.6453L265.235 44.8151Z" fill="#4E5558"/>
<path id="Vector_15" d="M282.319 51.5434L279.531 50.3039L284.729 38.613L287.517 39.853L282.319 51.5434Z" fill="#4E5558"/>
<path id="Vector_16" d="M384.177 194.336L383.854 191.303L396.578 189.965L396.9 192.998L384.177 194.336Z" fill="#4E5558"/>
<path id="Vector_17" d="M381.46 176.177L380.829 173.192L393.344 170.536L393.975 173.519L381.46 176.177Z" fill="#4E5558"/>
<path id="Vector_18" d="M376.862 158.401L375.92 155.501L388.091 151.551L389.031 154.451L376.862 158.401Z" fill="#4E5558"/>
<path id="Vector_19" d="M370.431 141.203L369.193 138.416L380.883 133.218L382.121 136.007L370.431 141.203Z" fill="#4E5558"/>
<path id="Vector_20" d="M106.638 69.1437L99.2207 58.7208L101.706 56.9519L109.121 67.3727L106.638 69.1437Z" fill="#4E5558"/>
<path id="Vector_21" d="M92.3555 80.6843L83.8887 71.0907L86.175 69.071L94.6438 78.6637L92.3555 80.6843Z" fill="#4E5558"/>
<path id="Vector_22" d="M79.361 93.6507L69.9404 84.9963L72.0011 82.7505L81.4216 91.4044L79.361 93.6507Z" fill="#4E5558"/>
<path id="Vector_23" d="M67.7898 107.91L57.5176 100.282L59.3345 97.833L69.6073 105.461L67.7898 107.91Z" fill="#4E5558"/>
<path id="Vector_24" d="M353.363 110.689L351.593 108.205L362.018 100.785L363.786 103.269L353.363 110.689Z" fill="#4E5558"/>
<path id="Vector_25" d="M342.071 96.2069L340.052 93.9201L349.645 85.4548L351.665 87.7417L342.071 96.2069Z" fill="#4E5558"/>
<path id="Vector_26" d="M329.33 82.9885L327.084 80.9274L335.738 71.5078L337.986 73.5685L329.33 82.9885Z" fill="#4E5558"/>
<path id="Vector_27" d="M315.279 71.1736L312.83 69.3562L320.454 59.0845L322.903 60.9014L315.279 71.1736Z" fill="#4E5558"/>
<path id="Vector_28" d="M34.9917 194.336L22.2686 192.998L22.5913 189.965L35.3145 191.303L34.9917 194.336Z" fill="#4E5558"/>
<path id="Vector_29" d="M37.7084 176.177L25.1938 173.519L25.8243 170.536L38.3404 173.192L37.7084 176.177Z" fill="#4E5558"/>
<path id="Vector_30" d="M42.3069 158.401L30.1377 154.451L31.0789 151.551L43.2487 155.501L42.3069 158.401Z" fill="#4E5558"/>
<path id="Vector_31" d="M48.7377 141.203L37.0479 136.007L38.2863 133.218L49.9762 138.416L48.7377 141.203Z" fill="#4E5558"/>
</g>
</g>
</svg>
