<svg width="270" height="270" viewBox="0 0 270 270" fill="none" xmlns="http://www.w3.org/2000/svg">
<path d="M127.575 55.9621C124.981 59.7201 121.475 62.7588 117.387 64.7938C113.299 66.8288 108.762 67.7937 104.199 67.5981C99.6366 67.4026 95.1982 66.053 91.2992 63.6757C87.4001 61.2983 84.1678 57.9709 81.9045 54.0046H54C46.8392 54.0046 39.9716 56.8492 34.9081 61.9125C29.8446 66.9759 27 73.8433 27 81.004V121.503C27 125.084 25.5777 128.517 23.0459 131.049C20.5142 133.581 17.0804 135.003 13.5 135.003C9.91958 135.003 6.4858 133.581 3.95406 131.049C1.42232 128.517 0 125.084 0 121.503V81.004C0 66.6826 5.68927 52.9478 15.8162 42.8211C25.9432 32.6943 39.6783 27.0052 54 27.0052H82.0395C84.3378 23.0667 87.5961 19.7745 91.5107 17.4356C95.4252 15.0967 99.8684 13.7873 104.426 13.6296C108.983 13.4719 113.506 14.471 117.573 16.5337C121.64 18.5964 125.118 21.6555 127.683 25.4257C128.114 22.0304 129.819 18.9256 132.452 16.7393C135.085 14.553 138.45 13.4485 141.867 13.6492C145.284 13.8498 148.497 15.3407 150.856 17.8203C153.215 20.2998 154.544 23.5828 154.575 27.0052H172.273L252.747 0.491739L252.788 0.518739C254.736 -0.0374687 256.784 -0.148087 258.781 0.195084C260.777 0.538255 262.671 1.32641 264.322 2.50113C265.972 3.67586 267.337 5.20701 268.316 6.98109C269.294 8.75518 269.86 10.7267 269.973 12.7495L270 12.763V66.6538L269.973 66.6673L270 67.5043C270.001 69.5948 269.517 71.657 268.585 73.5283C267.653 75.3997 266.3 77.0291 264.631 78.2882C262.962 79.5473 261.024 80.4016 258.969 80.7839C256.913 81.1662 254.797 81.0659 252.788 80.491L252.747 80.518L174.042 54.0046H154.575V67.6258C154.575 68.0308 154.562 68.4358 154.521 68.8408C168.105 71.7668 180.277 79.2596 189.007 90.0704C197.738 100.881 202.5 114.357 202.5 128.253V229.501C202.5 240.242 198.233 250.543 190.638 258.138C183.043 265.733 172.741 270 162 270H121.5C110.759 270 100.457 265.733 92.8622 258.138C85.267 250.543 81 240.242 81 229.501V128.253C81.0032 114.59 85.6103 101.326 94.0778 90.6031C102.545 79.88 114.379 72.3228 127.669 69.1513C127.609 68.645 127.578 68.1357 127.575 67.6258V55.9621Z" fill="white"/>
</svg>
