<svg width="102" height="112" viewBox="0 0 102 112" fill="none" xmlns="http://www.w3.org/2000/svg">
<path id="asset" fill-rule="evenodd" clip-rule="evenodd" d="M52.5108 0.38256C52.034 0.130446 51.5164 0 50.9927 0C50.4689 0 49.9513 0.130446 49.4745 0.38256L30.2377 10.5645L50.978 21.548L71.733 10.556L52.5108 0.38256ZM26.7908 44.1461V18.1029L47.3257 28.9755V57.7561L28.9249 48.0261C28.2843 47.6873 27.7411 47.1414 27.36 46.4534C26.979 45.7654 26.7763 44.9644 26.7761 44.1461H26.7908ZM54.6596 101.383V72.9011L74.1091 83.2024V111.983L55.7304 102.253C55.329 102.041 54.9711 101.746 54.6596 101.383ZM81.4431 112V83.2024L102 72.3212V98.3729C102 99.1912 101.797 99.9922 101.416 100.68C101.035 101.368 100.492 101.914 99.8512 102.253L81.4431 112ZM47.311 72.9011V101.417C47.006 101.765 46.6511 102.048 46.2623 102.253L27.8542 112V83.2024L47.311 72.9011ZM20.5203 83.2024V111.983L2.14884 102.253C1.50821 101.914 0.964961 101.368 0.583933 100.68C0.202905 99.9922 0.000194872 99.1912 0 98.3729V72.3297L20.5349 83.2024H20.5203ZM54.645 57.7731V28.967L75.2019 18.0858V44.1461C75.2017 44.9644 74.999 45.7654 74.618 46.4534C74.2369 47.1414 73.6937 47.6873 73.0531 48.0261L54.645 57.7731ZM76.2653 54.6179C76.7421 54.3658 77.2597 54.2354 77.7834 54.2354C78.3072 54.2354 78.8248 54.3658 79.3016 54.6179L98.5164 64.7828L77.7614 75.7749L57.0431 64.7828L76.2726 54.6009L76.2653 54.6179ZM22.6838 54.6179C23.1605 54.3658 23.6782 54.2354 24.2019 54.2354C24.7256 54.2354 25.2433 54.3658 25.72 54.6179L44.9349 64.7828L24.1872 75.7834L3.45427 64.7828L22.6838 54.6179Z" fill="black"/>
</svg>
