<svg width="227" height="263" viewBox="0 0 227 263" fill="none" xmlns="http://www.w3.org/2000/svg">
<path d="M133.45 184.964V151.742C133.45 149.059 132.399 146.486 130.529 144.589C128.659 142.692 126.122 141.626 123.477 141.626H103.533C100.888 141.626 98.3512 142.692 96.481 144.589C94.6109 146.486 93.5602 149.059 93.5602 151.742V184.944C78.4036 188.876 64.7257 197.253 54.2363 209.027C43.7469 220.801 36.9112 235.45 34.5838 251.144C34.3563 252.607 34.4438 254.102 34.8401 255.527C35.2365 256.953 35.9323 258.274 36.8799 259.4C37.8274 260.527 39.0042 261.432 40.3292 262.053C41.6543 262.675 43.0963 262.998 44.5562 263H182.613C184.073 262.998 185.515 262.675 186.84 262.053C188.165 261.432 189.342 260.527 190.289 259.4C191.237 258.274 191.933 256.953 192.329 255.527C192.726 254.102 192.813 252.607 192.586 251.144C190.243 235.433 183.382 220.774 172.863 209.001C162.343 197.229 148.633 188.867 133.45 184.964ZM225.973 106.806L176.111 5.64482C175.291 3.95527 174.021 2.53169 172.446 1.53439C170.871 0.537094 169.053 0.00568313 167.196 0H59.8138C57.9668 0.00381219 56.1571 0.527921 54.5864 1.5139C53.0158 2.49988 51.746 3.90898 50.9185 5.58412L1.05683 106.746C0.297201 108.283 -0.0633902 109.992 0.00912633 111.711C0.0816428 113.429 0.584873 115.1 1.47126 116.567C2.35765 118.033 3.59793 119.246 5.07491 120.09C6.55188 120.935 8.21677 121.384 9.91226 121.394H173.339V151.742C173.339 154.425 174.39 156.999 176.26 158.896C178.13 160.793 180.666 161.859 183.311 161.859C185.956 161.859 188.493 160.793 190.363 158.896C192.233 156.999 193.284 154.425 193.284 151.742V121.394H217.098C218.787 121.382 220.445 120.935 221.917 120.095C223.389 119.255 224.627 118.049 225.514 116.591C226.401 115.133 226.908 113.47 226.989 111.759C227.069 110.047 226.719 108.343 225.973 106.806Z" fill="white"/>
</svg>
