<svg width="247" height="263" viewBox="0 0 247 263" fill="none" xmlns="http://www.w3.org/2000/svg">
<path d="M130.458 175.12C128.146 175.291 125.812 175.377 123.456 175.377C120.59 175.377 117.757 175.246 114.957 174.999C101.106 173.771 87.6844 169.564 75.6107 162.666C63.5369 155.768 53.0967 146.342 45.0049 135.034C44.7918 134.73 44.5049 134.485 44.1712 134.322C43.8375 134.16 43.4679 134.084 43.0971 134.103C42.7263 134.123 42.3665 134.236 42.0514 134.432C41.7362 134.628 41.4761 134.901 41.2955 135.226L1.8455 206.126C0.344209 208.866 0.108606 212.153 1.69208 214.827C2.51638 216.153 3.66468 217.247 5.02877 218.006C6.39286 218.765 7.9278 219.165 9.48894 219.167H52.2264C53.7152 219.112 55.1916 219.455 56.5034 220.161C57.8153 220.867 58.915 221.91 59.689 223.183L80.8715 258.617C81.6466 259.931 82.7466 261.025 84.0658 261.792C85.385 262.56 86.8793 262.976 88.4054 263C91.66 262.819 95.0297 260.704 96.383 257.74L132.606 178.21C132.762 177.864 132.826 177.484 132.792 177.107C132.757 176.729 132.625 176.367 132.409 176.055C132.192 175.744 131.899 175.494 131.557 175.33C131.215 175.166 130.836 175.093 130.458 175.12ZM244.775 205.951L205.583 135.176C205.402 134.855 205.143 134.585 204.829 134.391C204.516 134.196 204.159 134.084 203.79 134.064C203.422 134.044 203.055 134.118 202.723 134.278C202.391 134.438 202.104 134.679 201.89 134.979C191.112 150.081 176.217 161.763 158.982 168.632C156.867 169.467 155.155 171.086 154.205 173.153L134.008 217.589C133.748 218.156 133.614 218.773 133.614 219.397C133.614 220.021 133.748 220.638 134.008 221.205L150.594 257.691C151.936 260.655 155.3 262.819 158.55 263C160.077 262.962 161.569 262.533 162.883 261.755C164.197 260.976 165.29 259.873 166.056 258.551L187.167 223.166C188.751 220.509 191.622 219.15 194.718 219.167H237.877C241.532 219.167 244.299 217.26 245.548 213.687C245.987 212.419 246.145 211.07 246.012 209.734C245.878 208.398 245.456 207.108 244.775 205.951Z" fill="white"/>
<path d="M123.478 105.201C138.006 105.201 149.784 93.4261 149.784 78.9011C149.784 64.376 138.006 52.6011 123.478 52.6011C108.95 52.6011 97.1729 64.376 97.1729 78.9011C97.1729 93.4261 108.95 105.201 123.478 105.201Z" fill="white"/>
<path d="M123.477 0C79.9616 0 44.5771 35.3899 44.5771 78.9C44.5771 122.41 79.978 157.8 123.477 157.8C166.976 157.8 202.377 122.405 202.377 78.9C202.377 35.3954 166.987 0 123.477 0ZM123.477 122.733C114.808 122.733 106.333 120.163 99.1246 115.346C91.9163 110.53 86.2981 103.684 82.9804 95.6743C79.6628 87.6648 78.7947 78.8514 80.4861 70.3485C82.1774 61.8457 86.3521 54.0353 92.4823 47.9051C98.6125 41.7749 106.423 37.6002 114.926 35.9089C123.428 34.2176 132.242 35.0856 140.251 38.4033C148.261 41.7209 155.107 47.3391 159.923 54.5475C164.74 61.7558 167.31 70.2306 167.31 78.9C167.296 90.5208 162.673 101.662 154.456 109.879C146.239 118.096 135.098 122.719 123.477 122.733Z" fill="white"/>
</svg>
