<svg width="305" height="263" viewBox="0 0 305 263" fill="none" xmlns="http://www.w3.org/2000/svg">
<path d="M91.5092 123.765C107.689 123.765 123.206 117.245 134.647 105.64C146.088 94.0346 152.515 78.2946 152.515 61.8824C152.515 45.4701 146.088 29.7301 134.647 18.1249C123.206 6.51973 107.689 0 91.5092 0C75.3293 0 59.8122 6.51973 48.3713 18.1249C36.9305 29.7301 30.5031 45.4701 30.5031 61.8824C30.5031 78.2946 36.9305 94.0346 48.3713 105.64C59.8122 117.245 75.3293 123.765 91.5092 123.765ZM228.773 123.765C240.908 123.765 252.546 118.875 261.126 110.171C269.707 101.467 274.527 89.6621 274.527 77.3529C274.527 65.0438 269.707 53.2388 261.126 44.5349C252.546 35.831 240.908 30.9412 228.773 30.9412C216.638 30.9412 205 35.831 196.42 44.5349C187.839 53.2388 183.018 65.0438 183.018 77.3529C183.018 89.6621 187.839 101.467 196.42 110.171C205 118.875 216.638 123.765 228.773 123.765ZM38.1288 154.706C17.0817 154.706 0 172.033 0 193.382C0 193.382 0 263 91.5092 263C164.045 263 179.083 219.249 182.195 201.118C183.018 196.384 183.018 193.382 183.018 193.382C183.018 172.033 165.937 154.706 144.889 154.706H38.1288ZM213.399 204.212C213.338 205.449 213.216 206.914 213.033 208.605C211.35 221.363 206.981 233.604 200.222 244.497C208.305 246.385 217.731 247.529 228.742 247.529C305 247.529 305 193.382 305 193.382C305 172.033 287.918 154.706 266.871 154.706H201.93C209.251 165.783 213.491 179.057 213.491 193.382V201.118L213.399 204.212Z" fill="white"/>
</svg>
