<svg width="59" height="108" viewBox="0 0 59 108" fill="none" xmlns="http://www.w3.org/2000/svg">
<path d="M13.0908 3.27288L13.0908 9.81834C13.0908 11.6258 14.5561 13.0911 16.3635 13.0911L42.5454 13.0911C44.3528 13.0911 45.8181 11.6258 45.8181 9.81834L45.8181 3.27288C45.8181 1.4654 44.3528 0.000154082 42.5454 0.000154161L16.3635 0.000155306C14.5561 0.000155385 13.0908 1.46541 13.0908 3.27288Z" fill="black"/>
<path d="M13.0908 91.6365L13.0908 75.2728L45.8181 75.2728L45.8181 91.6365L13.0908 91.6365ZM13.0908 70.3637L13.0908 54.0001L45.8181 54.0001L45.8181 70.3637L13.0908 70.3637ZM13.0908 49.091L13.0908 32.7274L45.8181 32.7274L45.8181 49.091L13.0908 49.091Z" fill="black"/>
<path fill-rule="evenodd" clip-rule="evenodd" d="M-3.57639e-06 26.1821L-4.29166e-07 98.1821C-3.15344e-07 100.786 1.03441 103.283 2.87568 105.125C4.71694 106.966 7.21424 108 9.81818 108L49.0909 108C51.6949 108 54.1921 106.966 56.0334 105.125C57.8747 103.283 58.9091 100.786 58.9091 98.1821L58.9091 26.1821C58.9091 23.5781 57.8747 21.0808 56.0334 19.2395C54.1921 17.3983 51.6948 16.3639 49.0909 16.3639L9.81818 16.3639C7.21423 16.3639 4.71694 17.3983 2.87567 19.2396C1.03441 21.0808 -3.69021e-06 23.5781 -3.57639e-06 26.1821ZM9.81818 101.455C8.9502 101.455 8.11777 101.11 7.50401 100.496C6.89026 99.8825 6.54545 99.05 6.54545 98.1821L6.54545 26.1821C6.54545 25.3141 6.89026 24.4816 7.50401 23.8679C8.11777 23.2541 8.9502 22.9093 9.81818 22.9093L49.0909 22.9093C49.9589 22.9093 50.7913 23.2541 51.4051 23.8679C52.0188 24.4816 52.3636 25.3141 52.3636 26.1821L52.3636 98.1821C52.3636 99.05 52.0188 99.8825 51.4051 100.496C50.7913 101.11 49.9589 101.455 49.0909 101.455L9.81818 101.455Z" fill="black"/>
</svg>
