<svg width="203" height="270" viewBox="0 0 203 270" fill="none" xmlns="http://www.w3.org/2000/svg">
<path id="building" d="M16.9167 0C12.4301 0 8.12727 1.7779 4.95478 4.94257C1.78229 8.10725 0 12.3995 0 16.875V253.125C0 257.601 1.78229 261.893 4.95478 265.057C8.12727 268.222 12.4301 270 16.9167 270H67.6667V210.938C67.6667 208.7 68.5578 206.554 70.1441 204.971C71.7303 203.389 73.8817 202.5 76.125 202.5H126.875C129.118 202.5 131.27 203.389 132.856 204.971C134.442 206.554 135.333 208.7 135.333 210.938V270H186.083C190.57 270 194.873 268.222 198.045 265.057C201.218 261.893 203 257.601 203 253.125V16.875C203 12.3995 201.218 8.10725 198.045 4.94257C194.873 1.7779 190.57 0 186.083 0L16.9167 0ZM33.8333 42.1875C33.8333 39.9497 34.7245 37.8036 36.3107 36.2213C37.897 34.6389 40.0484 33.75 42.2917 33.75H59.2083C61.4516 33.75 63.603 34.6389 65.1893 36.2213C66.7755 37.8036 67.6667 39.9497 67.6667 42.1875V59.0625C67.6667 61.3003 66.7755 63.4464 65.1893 65.0287C63.603 66.6111 61.4516 67.5 59.2083 67.5H42.2917C40.0484 67.5 37.897 66.6111 36.3107 65.0287C34.7245 63.4464 33.8333 61.3003 33.8333 59.0625V42.1875ZM84.5833 42.1875C84.5833 39.9497 85.4745 37.8036 87.0607 36.2213C88.647 34.6389 90.7984 33.75 93.0417 33.75H109.958C112.202 33.75 114.353 34.6389 115.939 36.2213C117.526 37.8036 118.417 39.9497 118.417 42.1875V59.0625C118.417 61.3003 117.526 63.4464 115.939 65.0287C114.353 66.6111 112.202 67.5 109.958 67.5H93.0417C90.7984 67.5 88.647 66.6111 87.0607 65.0287C85.4745 63.4464 84.5833 61.3003 84.5833 59.0625V42.1875ZM143.792 33.75H160.708C162.952 33.75 165.103 34.6389 166.689 36.2213C168.276 37.8036 169.167 39.9497 169.167 42.1875V59.0625C169.167 61.3003 168.276 63.4464 166.689 65.0287C165.103 66.6111 162.952 67.5 160.708 67.5H143.792C141.548 67.5 139.397 66.6111 137.811 65.0287C136.224 63.4464 135.333 61.3003 135.333 59.0625V42.1875C135.333 39.9497 136.224 37.8036 137.811 36.2213C139.397 34.6389 141.548 33.75 143.792 33.75ZM33.8333 92.8125C33.8333 90.5747 34.7245 88.4286 36.3107 86.8463C37.897 85.2639 40.0484 84.375 42.2917 84.375H59.2083C61.4516 84.375 63.603 85.2639 65.1893 86.8463C66.7755 88.4286 67.6667 90.5747 67.6667 92.8125V109.688C67.6667 111.925 66.7755 114.071 65.1893 115.654C63.603 117.236 61.4516 118.125 59.2083 118.125H42.2917C40.0484 118.125 37.897 117.236 36.3107 115.654C34.7245 114.071 33.8333 111.925 33.8333 109.688V92.8125ZM93.0417 84.375H109.958C112.202 84.375 114.353 85.2639 115.939 86.8463C117.526 88.4286 118.417 90.5747 118.417 92.8125V109.688C118.417 111.925 117.526 114.071 115.939 115.654C114.353 117.236 112.202 118.125 109.958 118.125H93.0417C90.7984 118.125 88.647 117.236 87.0607 115.654C85.4745 114.071 84.5833 111.925 84.5833 109.688V92.8125C84.5833 90.5747 85.4745 88.4286 87.0607 86.8463C88.647 85.2639 90.7984 84.375 93.0417 84.375ZM135.333 92.8125C135.333 90.5747 136.224 88.4286 137.811 86.8463C139.397 85.2639 141.548 84.375 143.792 84.375H160.708C162.952 84.375 165.103 85.2639 166.689 86.8463C168.276 88.4286 169.167 90.5747 169.167 92.8125V109.688C169.167 111.925 168.276 114.071 166.689 115.654C165.103 117.236 162.952 118.125 160.708 118.125H143.792C141.548 118.125 139.397 117.236 137.811 115.654C136.224 114.071 135.333 111.925 135.333 109.688V92.8125ZM42.2917 135H59.2083C61.4516 135 63.603 135.889 65.1893 137.471C66.7755 139.054 67.6667 141.2 67.6667 143.438V160.312C67.6667 162.55 66.7755 164.696 65.1893 166.279C63.603 167.861 61.4516 168.75 59.2083 168.75H42.2917C40.0484 168.75 37.897 167.861 36.3107 166.279C34.7245 164.696 33.8333 162.55 33.8333 160.312V143.438C33.8333 141.2 34.7245 139.054 36.3107 137.471C37.897 135.889 40.0484 135 42.2917 135ZM84.5833 143.438C84.5833 141.2 85.4745 139.054 87.0607 137.471C88.647 135.889 90.7984 135 93.0417 135H109.958C112.202 135 114.353 135.889 115.939 137.471C117.526 139.054 118.417 141.2 118.417 143.438V160.312C118.417 162.55 117.526 164.696 115.939 166.279C114.353 167.861 112.202 168.75 109.958 168.75H93.0417C90.7984 168.75 88.647 167.861 87.0607 166.279C85.4745 164.696 84.5833 162.55 84.5833 160.312V143.438ZM143.792 135H160.708C162.952 135 165.103 135.889 166.689 137.471C168.276 139.054 169.167 141.2 169.167 143.438V160.312C169.167 162.55 168.276 164.696 166.689 166.279C165.103 167.861 162.952 168.75 160.708 168.75H143.792C141.548 168.75 139.397 167.861 137.811 166.279C136.224 164.696 135.333 162.55 135.333 160.312V143.438C135.333 141.2 136.224 139.054 137.811 137.471C139.397 135.889 141.548 135 143.792 135Z" fill="white"/>
</svg>
