<svg width="45" height="51" viewBox="0 0 45 51" fill="none" xmlns="http://www.w3.org/2000/svg">
<path fill-rule="evenodd" clip-rule="evenodd" d="M7.94118 5.36842C7.23913 5.36842 6.56584 5.65122 6.06942 6.15461C5.573 6.65799 5.29412 7.34073 5.29412 8.05263V40.2632C5.29412 40.9751 5.573 41.6578 6.06942 42.1612C6.56584 42.6646 7.23913 42.9474 7.94118 42.9474H14.8632C16.3252 42.9474 17.5103 44.1491 17.5103 45.6316C17.5103 47.114 16.3252 48.3158 14.8632 48.3158H7.94118C5.83504 48.3158 3.81518 47.4674 2.32592 45.9572C0.836657 44.4471 0 42.3988 0 40.2632V8.05263C0 5.91694 0.836657 3.86872 2.32592 2.35856C3.81518 0.848399 5.83505 0 7.94118 0H29.1176C31.2238 0 33.2436 0.8484 34.7329 2.35856C36.2222 3.86872 37.0588 5.91694 37.0588 8.05263V29.5263C37.0588 31.0088 35.8737 32.2105 34.4118 32.2105C32.9498 32.2105 31.7647 31.0088 31.7647 29.5263V8.05263C31.7647 7.34074 31.4858 6.658 30.9894 6.15461C30.493 5.65122 29.8197 5.36842 29.1176 5.36842H7.94118ZM10.5882 13.4211C10.5882 11.9386 11.7734 10.7368 13.2353 10.7368H23.8235C25.2855 10.7368 26.4706 11.9386 26.4706 13.4211C26.4706 14.9035 25.2855 16.1053 23.8235 16.1053H13.2353C11.7734 16.1053 10.5882 14.9035 10.5882 13.4211ZM10.5882 24.1579C10.5882 22.6754 11.7734 21.4737 13.2353 21.4737H18.5294C19.9913 21.4737 21.1765 22.6754 21.1765 24.1579C21.1765 25.6403 19.9913 26.8421 18.5294 26.8421H13.2353C11.7734 26.8421 10.5882 25.6403 10.5882 24.1579ZM44.2247 35.6809C45.2584 36.7292 45.2584 38.4287 44.2247 39.477L33.6365 50.2138C32.6027 51.2621 30.9267 51.2621 29.893 50.2138L24.5988 44.8454C23.5651 43.7971 23.5651 42.0976 24.5988 41.0493C25.6326 40.0011 27.3086 40.0011 28.3423 41.0493L31.7647 44.5197L40.4812 35.6809C41.5149 34.6327 43.191 34.6327 44.2247 35.6809Z" fill="white"/>
</svg>
