<svg width="16" height="18" viewBox="0 0 16 18" fill="none" xmlns="http://www.w3.org/2000/svg">
<path fill-rule="evenodd" clip-rule="evenodd" d="M2.82353 1.89474C2.57391 1.89474 2.33452 1.99455 2.15802 2.17221C1.98151 2.34988 1.88235 2.59085 1.88235 2.84211V14.2105C1.88235 14.4618 1.98151 14.7028 2.15802 14.8804C2.33452 15.0581 2.57391 15.1579 2.82353 15.1579H5.28471C5.8045 15.1579 6.22588 15.582 6.22588 16.1053C6.22588 16.6285 5.8045 17.0526 5.28471 17.0526H2.82353C2.07468 17.0526 1.35651 16.7532 0.826993 16.2202C0.297478 15.6872 0 14.9643 0 14.2105V2.84211C0 2.08833 0.297478 1.36543 0.826993 0.832433C1.35651 0.299435 2.07468 0 2.82353 0H10.3529C11.1018 0 11.82 0.299435 12.3495 0.832433C12.879 1.36543 13.1765 2.08833 13.1765 2.84211V10.4211C13.1765 10.9443 12.7551 11.3684 12.2353 11.3684C11.7155 11.3684 11.2941 10.9443 11.2941 10.4211V2.84211C11.2941 2.59085 11.195 2.34988 11.0185 2.17221C10.8419 1.99455 10.6026 1.89474 10.3529 1.89474H2.82353ZM3.76471 4.73684C3.76471 4.21362 4.18609 3.78947 4.70588 3.78947H8.47059C8.99039 3.78947 9.41177 4.21362 9.41177 4.73684C9.41177 5.26006 8.99039 5.68421 8.47059 5.68421H4.70588C4.18609 5.68421 3.76471 5.26006 3.76471 4.73684ZM3.76471 8.52632C3.76471 8.0031 4.18609 7.57895 4.70588 7.57895H6.58824C7.10803 7.57895 7.52941 8.0031 7.52941 8.52632C7.52941 9.04953 7.10803 9.47368 6.58824 9.47368H4.70588C4.18609 9.47368 3.76471 9.04953 3.76471 8.52632ZM15.7243 12.5933C16.0919 12.9632 16.0919 13.5631 15.7243 13.933L11.9596 17.7225C11.5921 18.0925 10.9962 18.0925 10.6286 17.7225L8.74625 15.8278C8.3787 15.4578 8.3787 14.858 8.74625 14.488C9.1138 14.118 9.70973 14.118 10.0773 14.488L11.2941 15.7128L14.3933 12.5933C14.7609 12.2233 15.3568 12.2233 15.7243 12.5933Z" fill="white"/>
</svg>
