<svg width="103" height="89" viewBox="0 0 103 89" fill="none" xmlns="http://www.w3.org/2000/svg">
<path d="M50.7041 28.1053L65.5455 42.9074V42.1579C65.5455 38.4309 64.0657 34.8566 61.4316 32.2212C58.7976 29.5858 55.2251 28.1053 51.5 28.1053H50.7041ZM30.5723 31.8526L37.8291 39.1132C37.595 40.0968 37.4545 41.0805 37.4545 42.1579C37.4545 45.8849 38.9343 49.4592 41.5684 52.0946C44.2024 54.73 47.7749 56.2105 51.5 56.2105C52.53 56.2105 53.56 56.07 54.5432 55.8358L61.8 63.0963C58.6632 64.6421 55.1986 65.5789 51.5 65.5789C45.2915 65.5789 39.3373 63.1114 34.9473 58.7191C30.5572 54.3268 28.0909 48.3695 28.0909 42.1579C28.0909 38.4574 29.0273 34.9911 30.5723 31.8526ZM4.68182 5.94895L15.3564 16.6289L17.4632 18.7368C9.73818 24.8263 3.65182 32.7895 0 42.1579C8.09955 62.7216 28.0909 77.2895 51.5 77.2895C58.7568 77.2895 65.6859 75.8842 72.0064 73.3547L74.0195 75.3221L87.6904 89L93.6364 83.051L10.6277 0M51.5 18.7368C57.7085 18.7368 63.6627 21.2044 68.0527 25.5967C72.4428 29.989 74.9091 35.9462 74.9091 42.1579C74.9091 45.1558 74.3004 48.06 73.2236 50.6832L86.9414 64.4079C93.9641 58.5526 99.5823 50.8705 103 42.1579C94.9005 21.5942 74.9091 7.02632 51.5 7.02632C44.9455 7.02632 38.6718 8.19737 32.7727 10.3053L42.9323 20.3763C45.6009 19.3458 48.4568 18.7368 51.5 18.7368Z" fill="#3F3F3F"/>
</svg>
