<svg width="273" height="270" viewBox="0 0 273 270" fill="none" xmlns="http://www.w3.org/2000/svg">
<path d="M0 0V15.2726C18.4493 35.0239 38.9573 58.1339 59.023 78.2193C63.2007 82.4045 67.4478 86.5196 71.7626 90.5629C72.1204 81.689 73.2412 73.2292 75.3747 65.4375C74.7746 64.8409 74.1762 64.2591 73.5744 63.655C53.7362 43.8012 33.0236 20.3829 13.913 0H0ZM258.14 0C239.03 20.3829 218.316 43.8007 198.479 63.6544C197.877 64.2585 197.279 64.8409 196.678 65.4375C198.812 73.2292 199.933 81.689 200.291 90.5629C204.605 86.5194 208.853 82.4041 213.03 78.2188C233.095 58.1339 253.604 35.0234 272.053 15.272V0H258.14ZM136.027 31.4639C114.877 31.4639 102.083 38.3563 93.8098 49.7279C85.5367 61.0995 81.9132 77.7022 81.9132 97.0725C81.9132 115.798 89.0723 139.587 99.7452 158.15C110.418 176.713 124.525 189.219 136.027 189.219C147.528 189.219 161.635 176.713 172.308 158.15C182.981 139.588 190.14 115.799 190.14 97.0742C190.14 77.7039 186.516 61.1001 178.243 49.7285C169.97 38.3563 157.176 31.4639 136.027 31.4639ZM136.027 50.8228C152.443 50.8228 165.861 64.2528 165.861 80.685C165.861 97.116 152.443 110.547 136.027 110.547C119.61 110.547 106.192 97.116 106.192 80.685C106.192 64.2528 119.61 50.8228 136.027 50.8228ZM136.027 61.1201C133.457 61.1098 130.91 61.6087 128.534 62.5883C126.158 63.5678 123.999 65.0086 122.182 66.8274C120.365 68.6463 118.925 70.8072 117.947 73.1856C116.968 75.564 116.47 78.1128 116.48 80.685C116.47 83.2571 116.968 85.8059 117.947 88.1842C118.926 90.5625 120.365 92.7234 122.182 94.5422C123.999 96.361 126.158 97.8017 128.534 98.7813C130.91 99.7609 133.457 100.26 136.027 100.25C138.596 100.26 141.143 99.7609 143.519 98.7813C145.895 97.8017 148.054 96.361 149.871 94.5422C151.688 92.7234 153.127 90.5625 154.106 88.1842C155.085 85.8059 155.583 83.2571 155.573 80.685C155.584 78.1128 155.085 75.564 154.106 73.1856C153.128 70.8072 151.688 68.6463 149.871 66.8274C148.054 65.0086 145.895 63.5678 143.519 62.5883C141.143 61.6087 138.596 61.1098 136.027 61.1201ZM136.027 154.825C138.646 154.825 141.158 155.867 143.01 157.721C144.862 159.575 145.903 162.089 145.903 164.711C145.903 167.333 144.862 169.847 143.01 171.701C141.158 173.555 138.646 174.596 136.027 174.596C134.73 174.596 133.445 174.341 132.247 173.844C131.049 173.347 129.96 172.619 129.043 171.701C128.126 170.783 127.398 169.693 126.902 168.494C126.406 167.294 126.15 166.009 126.15 164.711C126.15 162.089 127.191 159.575 129.043 157.721C130.895 155.867 133.407 154.825 136.027 154.825ZM123.856 197.054C122.926 204.254 132.596 213.403 137.101 217.033C144.912 223.329 146.968 227.005 147.142 233.477C146.436 245.182 133.018 250.708 124.215 246.412C118.209 243.609 116.147 238.593 113.89 231.343C112.263 226.12 108.941 221.221 104.261 217.928C100.697 215.564 95.9919 211.195 92.1134 214.682C89.3632 219.479 94.9837 221.679 97.4505 227.188C97.986 230.569 97.9049 232.714 97.9449 235.105C97.9992 244.499 102.111 269.099 135.846 269.989C156.156 270.524 172.899 252.113 173.752 234.281C173.872 231.755 174.464 207.365 148.05 197.115C144.189 198.661 140.177 199.516 136.027 199.516C131.823 199.516 127.762 198.639 123.856 197.055V197.054Z" fill="white"/>
</svg>
