<svg width="51" height="51" viewBox="0 0 51 51" fill="none" xmlns="http://www.w3.org/2000/svg">
<path id="Vector" d="M22.8702 6.35534V16.503C22.8702 17.3432 22.7042 18.1752 22.3817 18.9511C22.0592 19.7271 21.5866 20.4317 20.9909 21.0246C20.3953 21.6176 19.6883 22.0871 18.9107 22.4062C18.133 22.7254 17.2999 22.8879 16.4593 22.8845H6.35871C5.52032 22.8895 4.68953 22.7254 3.91614 22.4018C3.14276 22.0782 2.44271 21.6019 1.85795 21.0014C1.26544 20.4121 0.796059 19.7109 0.47711 18.9386C0.158162 18.1664 -0.00399279 17.3384 7.46652e-05 16.503V6.3815C6.04819e-05 4.69354 0.66915 3.07433 1.86088 1.87832C3.05261 0.682305 4.66989 0.00691785 6.35871 0H16.4854C17.3229 0.000804265 18.152 0.167652 18.9246 0.490883C19.6971 0.814114 20.3979 1.28731 20.9862 1.88306C21.5826 2.46536 22.0566 3.16098 22.3801 3.92902C22.7037 4.69705 22.8703 5.522 22.8702 6.35534ZM51 6.3815V16.503C50.9864 18.1867 50.313 19.7981 49.1242 20.9912C47.9353 22.1843 46.3259 22.864 44.6414 22.8845H34.4885C32.796 22.8741 31.1734 22.2085 29.9616 21.0276C29.3694 20.4325 28.9005 19.7266 28.5817 18.9502C28.2629 18.1738 28.1005 17.3422 28.1037 16.503V6.3815C28.1001 5.54376 28.265 4.71384 28.5887 3.94107C28.9123 3.16829 29.3881 2.46843 29.9877 1.88306C30.5761 1.28731 31.2768 0.814114 32.0494 0.490883C32.8219 0.167652 33.651 0.000804265 34.4885 0H44.6152C46.3043 0.0136707 47.9204 0.690394 49.1148 1.88421C50.3092 3.07802 50.9863 4.69325 51 6.3815ZM51 34.4967V44.6182C50.9864 46.3019 50.313 47.9133 49.1242 49.1064C47.9353 50.2995 46.3259 50.9792 44.6414 50.9997H34.4885C32.7852 51.0169 31.1424 50.3695 29.9092 49.1951C29.3147 48.6018 28.8443 47.8962 28.5253 47.1194C28.2064 46.3426 28.0453 45.5101 28.0513 44.6705V34.549C28.0479 33.7113 28.2129 32.8814 28.5365 32.1087C28.8602 31.3359 29.3359 30.636 29.9354 30.0506C30.5238 29.4549 31.2246 28.9818 31.9971 28.6586C32.7697 28.3354 33.5986 28.1685 34.4361 28.1675H44.5629C46.252 28.1812 47.868 28.8579 49.0625 30.0517C50.2569 31.2455 50.934 32.8608 50.9477 34.549L51 34.4967ZM22.8702 34.5228V44.6443C22.8496 46.3325 22.166 47.945 20.9666 49.1339C19.7673 50.3228 18.1484 50.9929 16.4593 50.9997H6.35871C5.52271 51.0031 4.6943 50.8411 3.92128 50.5229C3.14825 50.2048 2.4459 49.7368 1.85476 49.1459C1.26361 48.5551 0.795371 47.8531 0.477046 47.0805C0.158721 46.3079 -0.00338707 45.4799 7.46652e-05 44.6443V34.5228C0.00681588 32.8345 0.677262 31.2165 1.8668 30.0178C3.05634 28.8191 4.66964 28.1358 6.35871 28.1152H16.4854C18.1822 28.1298 19.8063 28.8054 21.0124 29.9983C22.2058 31.2016 22.8738 32.8285 22.8702 34.5228Z" fill="white"/>
</svg>
