<svg width="18" height="18" viewBox="0 0 18 18" fill="none" xmlns="http://www.w3.org/2000/svg">
<path id="Vector" d="M8.07185 2.24306V5.82458C8.07185 6.12113 8.01326 6.41477 7.89943 6.68863C7.78561 6.96249 7.61879 7.21119 7.40856 7.42046C7.19833 7.62973 6.94882 7.79544 6.67435 7.90808C6.39988 8.02072 6.10586 8.07808 5.80915 8.07687H2.24425C1.94835 8.07866 1.65513 8.02072 1.38217 7.90652C1.10921 7.79232 0.862131 7.6242 0.655746 7.41226C0.446624 7.20426 0.280962 6.95679 0.168392 6.68422C0.0558219 6.41166 -0.00140922 6.11945 2.63524e-05 5.82458V2.25229C2.13466e-05 1.65654 0.23617 1.08506 0.656781 0.662936C1.07739 0.240814 1.6482 0.0024416 2.24425 0H5.81839C6.11398 0.000283858 6.40658 0.0591712 6.67925 0.173253C6.95192 0.287334 7.19924 0.454343 7.40689 0.664611C7.6174 0.870126 7.78468 1.11564 7.89887 1.38671C8.01307 1.65778 8.07188 1.94894 8.07185 2.24306ZM18 2.25229V5.82458C17.9952 6.41885 17.7575 6.98756 17.3379 7.40865C16.9184 7.82974 16.3503 8.06964 15.7558 8.07687H12.1724C11.5751 8.07322 11.0024 7.8383 10.5747 7.42149C10.3657 7.21148 10.2002 6.96233 10.0877 6.68831C9.97515 6.41429 9.91781 6.12078 9.91894 5.82458V2.25229C9.91768 1.95662 9.97589 1.66371 10.0901 1.39096C10.2043 1.11822 10.3723 0.87121 10.5839 0.664611C10.7915 0.454343 11.0389 0.287334 11.3115 0.173253C11.5842 0.0591712 11.8768 0.000283858 12.1724 0H15.7465C16.3427 0.00482496 16.9131 0.243669 17.3346 0.665014C17.7562 1.08636 17.9952 1.65644 18 2.25229ZM18 12.1753V15.7476C17.9952 16.3419 17.7575 16.9106 17.3379 17.3317C16.9184 17.7527 16.3503 17.9927 15.7558 17.9999H12.1724C11.5712 18.006 10.9914 17.7775 10.5562 17.363C10.3464 17.1536 10.1803 16.9045 10.0678 16.6304C9.95519 16.3562 9.89832 16.0624 9.90047 15.766V12.1938C9.89926 11.8981 9.95749 11.6052 10.0717 11.3325C10.1859 11.0597 10.3538 10.8127 10.5654 10.6061C10.7731 10.3959 11.0204 10.2289 11.2931 10.1148C11.5658 10.0007 11.8583 9.94181 12.1539 9.94147H15.7281C16.3242 9.9463 16.8946 10.1851 17.3162 10.6065C17.7377 11.0278 17.9767 11.5979 17.9815 12.1938L18 12.1753ZM8.07185 12.1845V15.7568C8.06458 16.3527 7.82328 16.9218 7.39998 17.3414C6.97669 17.761 6.40533 17.9975 5.80915 17.9999H2.24425C1.94919 18.0011 1.65681 17.9439 1.38398 17.8316C1.11115 17.7193 0.863259 17.5542 0.65462 17.3456C0.445981 17.1371 0.280719 16.8893 0.168369 16.6166C0.0560191 16.344 -0.00119544 16.0517 2.63524e-05 15.7568V12.1845C0.0024056 11.5887 0.239034 11.0176 0.658871 10.5945C1.07871 10.1715 1.64811 9.93027 2.24425 9.92301H5.81839C6.41723 9.92816 6.99045 10.1666 7.41613 10.5876C7.83735 11.0123 8.07312 11.5865 8.07185 12.1845Z" fill="white"/>
</svg>
