<svg width="16" height="14" viewBox="0 0 16 14" fill="none" xmlns="http://www.w3.org/2000/svg">
<path fill-rule="evenodd" clip-rule="evenodd" d="M0.546453 0.73571C0.907393 0.313145 1.42028 0.0517578 1.98059 0.0517578H7.37621C7.93651 0.0517578 8.4494 0.313146 8.81034 0.73571C9.16867 1.15522 9.35679 1.70564 9.35679 2.26265V3.84185C9.35679 4.19072 9.07398 4.47353 8.72511 4.47353C8.37624 4.47353 8.09343 4.19072 8.09343 3.84185V2.26265C8.09343 1.98199 7.99732 1.72906 7.84971 1.55625C7.70471 1.38649 7.53141 1.31512 7.37621 1.31512H1.98059C1.82539 1.31512 1.65208 1.38649 1.50708 1.55625C1.35947 1.72906 1.26336 1.98199 1.26336 2.26265V11.7379C1.26336 12.0185 1.35947 12.2715 1.50708 12.4443C1.65208 12.614 1.82539 12.6854 1.98059 12.6854H7.10642C7.29192 12.6854 7.54991 12.5892 7.76812 12.389C7.9817 12.1931 8.09343 11.9572 8.09343 11.7379V10.1587C8.09343 9.8098 8.37624 9.52699 8.72511 9.52699C9.07398 9.52699 9.35679 9.8098 9.35679 10.1587V11.7379C9.35679 12.3906 9.03165 12.9444 8.62212 13.32C8.21721 13.6914 7.66586 13.9488 7.10642 13.9488H1.98059C1.42028 13.9488 0.907393 13.6874 0.546453 13.2648C0.188125 12.8453 0 12.2949 0 11.7379V2.26265C0 1.70564 0.188125 1.15522 0.546453 0.73571ZM11.4923 3.35658C11.7603 3.13324 12.1586 3.16945 12.382 3.43746L15.014 6.59587C15.2092 6.83013 15.2092 7.1704 15.014 7.40466L12.382 10.5631C12.1586 10.8311 11.7603 10.8673 11.4923 10.6439C11.2243 10.4206 11.1881 10.0223 11.4114 9.75428L13.18 7.63194H5.05346C4.70459 7.63194 4.42178 7.34913 4.42178 7.00026C4.42178 6.65139 4.70459 6.36858 5.05346 6.36858H13.18L11.4114 4.24624C11.1881 3.97824 11.2243 3.57992 11.4923 3.35658Z" fill="black"/>
</svg>
