<svg width="16" height="18" viewBox="0 0 16 18" fill="none" xmlns="http://www.w3.org/2000/svg">
<path d="M13.6566 2.31627C15.1253 3.76798 15.9653 5.72745 15.9989 7.78033C16.0326 9.83321 15.2573 11.8186 13.837 13.3166L13.6566 13.5011L9.88512 17.2285C9.40658 17.7013 8.76415 17.9765 8.08797 17.9986C7.4118 18.0206 6.75243 17.7877 6.24344 17.3471L6.11545 17.2285L2.3431 13.5002C0.842838 12.0171 0 10.0056 0 7.90825C0 5.81085 0.842838 3.79936 2.3431 2.31627C3.84336 0.833188 5.87815 0 7.99984 0C10.1215 0 12.1563 0.833188 13.6566 2.31627ZM7.99984 5.27218C7.64966 5.27218 7.3029 5.34037 6.97938 5.47284C6.65585 5.60532 6.36189 5.79949 6.11427 6.04427C5.86665 6.28905 5.67023 6.57965 5.53623 6.89947C5.40222 7.21929 5.33324 7.56208 5.33324 7.90825C5.33324 8.25442 5.40222 8.59721 5.53623 8.91703C5.67023 9.23685 5.86665 9.52745 6.11427 9.77223C6.36189 10.017 6.65585 10.2112 6.97938 10.3437C7.3029 10.4761 7.64966 10.5443 7.99984 10.5443C8.70707 10.5443 9.38533 10.2666 9.88541 9.77223C10.3855 9.27787 10.6664 8.60738 10.6664 7.90825C10.6664 7.20912 10.3855 6.53863 9.88541 6.04427C9.38533 5.54991 8.70707 5.27218 7.99984 5.27218Z" fill="black"/>
</svg>
