<svg width="14" height="18" viewBox="0 0 14 18" fill="none" xmlns="http://www.w3.org/2000/svg">
<path d="M14 6.75013C14 8.54038 13.2625 10.2573 11.9497 11.5232C10.637 12.7891 8.85652 13.5003 7 13.5003C5.14348 13.5003 3.36301 12.7891 2.05025 11.5232C0.737498 10.2573 0 8.54038 0 6.75013C0 4.95988 0.737498 3.24296 2.05025 1.97707C3.36301 0.711172 5.14348 0 7 0C8.85652 0 10.637 0.711172 11.9497 1.97707C13.2625 3.24296 14 4.95988 14 6.75013ZM6.8215 3.48982L5.985 5.23698C5.96989 5.26709 5.94728 5.29313 5.91918 5.31276C5.89109 5.3324 5.85838 5.34501 5.824 5.34948L3.843 5.57673C3.80425 5.58106 3.7676 5.59601 3.73739 5.6198C3.70718 5.64359 3.68466 5.67523 3.67251 5.71097C3.66036 5.74671 3.65908 5.78507 3.66883 5.82149C3.67857 5.85791 3.69893 5.89088 3.7275 5.91649L5.19283 7.22264C5.21814 7.24584 5.23704 7.27476 5.24784 7.30677C5.25863 7.33879 5.26098 7.3729 5.25467 7.40602L4.865 9.29268C4.83 9.45806 5.012 9.58518 5.16483 9.50306L6.9055 8.56366C6.93615 8.54771 6.97042 8.53936 7.00525 8.53936C7.04008 8.53936 7.07435 8.54771 7.105 8.56366L8.84567 9.50306C8.99733 9.58518 9.1805 9.45806 9.14667 9.29268L8.757 7.40602C8.75068 7.3729 8.75303 7.33879 8.76383 7.30677C8.77462 7.27476 8.79353 7.24584 8.81883 7.22264L10.2842 5.91649C10.3127 5.89088 10.3331 5.85791 10.3428 5.82149C10.3526 5.78507 10.3513 5.74671 10.3392 5.71097C10.327 5.67523 10.3045 5.64359 10.2743 5.6198C10.2441 5.59601 10.2074 5.58106 10.1687 5.57673L8.18767 5.34948C8.15328 5.34501 8.12058 5.3324 8.09248 5.31276C8.06439 5.29313 8.04178 5.26709 8.02667 5.23698L7.19017 3.48982C7.17371 3.45592 7.14758 3.42724 7.11483 3.40715C7.08208 3.38706 7.04407 3.37639 7.00525 3.37639C6.96643 3.37639 6.92842 3.38706 6.89567 3.40715C6.86292 3.42724 6.83679 3.45592 6.82033 3.48982M7 14.6253C8.66895 14.6276 10.2982 14.1347 11.6667 13.2134V17.4378C11.6666 17.5411 11.6371 17.6423 11.5813 17.7305C11.5255 17.8186 11.4457 17.8902 11.3505 17.9375C11.2553 17.9848 11.1485 18.0059 11.0417 17.9986C10.9349 17.9912 10.8322 17.9556 10.745 17.8957L7 15.7503L3.255 17.8957C3.16778 17.9556 3.06514 17.9912 2.95834 17.9986C2.85154 18.0059 2.74469 17.9848 2.64951 17.9375C2.55432 17.8902 2.47447 17.8186 2.4187 17.7305C2.36293 17.6423 2.3334 17.5411 2.33333 17.4378V13.2134C3.70178 14.1347 5.33105 14.6276 7 14.6253Z" fill="black"/>
</svg>
