<svg width="14" height="20" viewBox="0 0 14 20" fill="none" xmlns="http://www.w3.org/2000/svg">
<path d="M5.92083 0.722656C5.86615 0.589063 5.73854 0.5 5.59635 0.5H4.90365C4.76146 0.5 4.63021 0.589063 4.57917 0.722656L3.82448 2.64121C3.70781 2.93809 3.29219 2.93809 3.17552 2.64121L2.42083 0.722656C2.36615 0.589063 2.23854 0.5 2.09635 0.5H1.75C0.783854 0.5 0 1.29785 0 2.28125V10H14V2.28125C14 1.29785 13.2161 0.5 12.25 0.5H8.40365C8.26146 0.5 8.13021 0.589063 8.07917 0.722656L7.32448 2.64121C7.20781 2.93809 6.79219 2.93809 6.67552 2.64121L5.92083 0.722656ZM0 11.1875V12.375C0 13.685 1.04635 14.75 2.33333 14.75H4.66667V17.125C4.66667 18.435 5.71302 19.5 7 19.5C8.28698 19.5 9.33333 18.435 9.33333 17.125V14.75H11.6667C12.9536 14.75 14 13.685 14 12.375V11.1875H0ZM7 16.5312C7.15471 16.5312 7.30308 16.5938 7.41248 16.7052C7.52187 16.8165 7.58333 16.9675 7.58333 17.125C7.58333 17.2825 7.52187 17.4335 7.41248 17.5448C7.30308 17.6562 7.15471 17.7188 7 17.7188C6.84529 17.7188 6.69692 17.6562 6.58752 17.5448C6.47812 17.4335 6.41667 17.2825 6.41667 17.125C6.41667 16.9675 6.47812 16.8165 6.58752 16.7052C6.69692 16.5938 6.84529 16.5312 7 16.5312Z" fill="black"/>
</svg>
