<svg width="15" height="16" viewBox="0 0 15 16" fill="none" xmlns="http://www.w3.org/2000/svg">
<path d="M1.66667 15.5C1.20833 15.5 0.816111 15.3369 0.49 15.0108C0.163889 14.6847 0.000555555 14.2922 0 13.8333V2.16667C0 1.70833 0.163333 1.31611 0.49 0.99C0.816667 0.663889 1.20889 0.500556 1.66667 0.5H13.3333C13.7917 0.5 14.1842 0.663333 14.5108 0.99C14.8375 1.31667 15.0006 1.70889 15 2.16667V13.8333C15 14.2917 14.8369 14.6842 14.5108 15.0108C14.1847 15.3375 13.7922 15.5006 13.3333 15.5H1.66667ZM2.5 12.1667H12.5L9.375 8L6.875 11.3333L5 8.83333L2.5 12.1667Z" fill="black"/>
</svg>
