<svg width="14" height="14" viewBox="0 0 14 14" fill="none" xmlns="http://www.w3.org/2000/svg">
<path fill-rule="evenodd" clip-rule="evenodd" d="M2.33442 5.83398C2.12814 5.83398 1.93031 5.91593 1.78445 6.06179C1.63858 6.20765 1.55664 6.40548 1.55664 6.61176V7.38954C1.55664 7.59582 1.63858 7.79365 1.78445 7.93951C1.93031 8.08537 2.12814 8.16732 2.33442 8.16732H3.1122C3.31848 8.16732 3.51631 8.08537 3.66217 7.93951C3.80803 7.79365 3.88997 7.59582 3.88997 7.38954V6.61176C3.88997 6.40548 3.80803 6.20765 3.66217 6.06179C3.51631 5.91593 3.31848 5.83398 3.1122 5.83398H2.33442ZM2.33442 6.61176V7.38954H3.1122V6.61176H2.33442ZM4.66775 6.61176C4.66775 6.40548 4.7497 6.20765 4.89556 6.06179C5.04142 5.91593 5.23925 5.83398 5.44553 5.83398H6.22331C6.42959 5.83398 6.62742 5.91593 6.77328 6.06179C6.91914 6.20765 7.00108 6.40548 7.00108 6.61176V7.38954C7.00108 7.59582 6.91914 7.79365 6.77328 7.93951C6.62742 8.08537 6.42959 8.16732 6.22331 8.16732H5.44553C5.23925 8.16732 5.04142 8.08537 4.89556 7.93951C4.7497 7.79365 4.66775 7.59582 4.66775 7.38954V6.61176ZM5.44553 6.61176H6.22331V7.38954H5.44553V6.61176ZM8.55664 5.83398C8.35036 5.83398 8.15253 5.91593 8.00667 6.06179C7.86081 6.20765 7.77886 6.40548 7.77886 6.61176V7.38954C7.77886 7.59582 7.86081 7.79365 8.00667 7.93951C8.15253 8.08537 8.35036 8.16732 8.55664 8.16732H9.33442C9.5407 8.16732 9.73853 8.08537 9.88439 7.93951C10.0303 7.79365 10.1122 7.59582 10.1122 7.38954V6.61176C10.1122 6.40548 10.0303 6.20765 9.88439 6.06179C9.73853 5.91593 9.5407 5.83398 9.33442 5.83398H8.55664ZM8.55664 6.61176V7.38954H9.33442V6.61176H8.55664ZM1.55664 9.72287C1.55664 9.51659 1.63858 9.31876 1.78445 9.1729C1.93031 9.02704 2.12814 8.9451 2.33442 8.9451H3.1122C3.31848 8.9451 3.51631 9.02704 3.66217 9.1729C3.80803 9.31876 3.88997 9.51659 3.88997 9.72287V10.5007C3.88997 10.7069 3.80803 10.9048 3.66217 11.0506C3.51631 11.1965 3.31848 11.2784 3.1122 11.2784H2.33442C2.12814 11.2784 1.93031 11.1965 1.78445 11.0506C1.63858 10.9048 1.55664 10.7069 1.55664 10.5007V9.72287ZM3.1122 9.72287V10.5007H2.33442V9.72287H3.1122ZM5.44553 8.9451C5.23925 8.9451 5.04142 9.02704 4.89556 9.1729C4.7497 9.31876 4.66775 9.51659 4.66775 9.72287V10.5007C4.66775 10.7069 4.7497 10.9048 4.89556 11.0506C5.04142 11.1965 5.23925 11.2784 5.44553 11.2784H6.22331C6.42959 11.2784 6.62742 11.1965 6.77328 11.0506C6.91914 10.9048 7.00108 10.7069 7.00108 10.5007V9.72287C7.00108 9.51659 6.91914 9.31876 6.77328 9.1729C6.62742 9.02704 6.42959 8.9451 6.22331 8.9451H5.44553ZM6.22331 9.72287H5.44553V10.5007H6.22331V9.72287Z" fill="black"/>
<path d="M11.6664 10.3049C11.6664 10.2018 11.6255 10.1028 11.5525 10.0299C11.4796 9.95699 11.3807 9.91602 11.2776 9.91602C11.1744 9.91602 11.0755 9.95699 11.0026 10.0299C10.9296 10.1028 10.8887 10.2018 10.8887 10.3049V11.4381L11.3915 11.941C11.4649 12.0118 11.5631 12.051 11.6651 12.0501C11.767 12.0492 11.8646 12.0083 11.9367 11.9362C12.0088 11.8641 12.0497 11.7666 12.0505 11.6646C12.0514 11.5627 12.0122 11.4644 11.9414 11.3911L11.6664 11.1161V10.3049Z" fill="black"/>
<path fill-rule="evenodd" clip-rule="evenodd" d="M2.33333 0.388889C2.33333 0.285749 2.37431 0.186834 2.44724 0.113903C2.52017 0.0409722 2.61908 0 2.72222 0C2.82536 0 2.92428 0.0409722 2.99721 0.113903C3.07014 0.186834 3.11111 0.285749 3.11111 0.388889V2.33333C3.11111 2.43647 3.15208 2.53539 3.22501 2.60832C3.29794 2.68125 3.39686 2.72222 3.5 2.72222C3.60314 2.72222 3.70205 2.68125 3.77499 2.60832C3.84792 2.53539 3.88889 2.43647 3.88889 2.33333V1.16667H7.77778V0.388889C7.77778 0.285749 7.81875 0.186834 7.89168 0.113903C7.96461 0.0409722 8.06353 0 8.16667 0C8.26981 0 8.36872 0.0409722 8.44165 0.113903C8.51458 0.186834 8.55556 0.285749 8.55556 0.388889V2.33333C8.55556 2.43647 8.59653 2.53539 8.66946 2.60832C8.74239 2.68125 8.8413 2.72222 8.94444 2.72222C9.04758 2.72222 9.1465 2.68125 9.21943 2.60832C9.29236 2.53539 9.33333 2.43647 9.33333 2.33333V1.16667H10.5C10.8094 1.16667 11.1062 1.28958 11.325 1.50838C11.5437 1.72717 11.6667 2.02391 11.6667 2.33333V8.58278C12.3478 8.68123 12.9664 9.03399 13.398 9.5701C13.8296 10.1062 14.0421 10.7859 13.9928 11.4723C13.9435 12.1588 13.6361 12.8011 13.1324 13.2701C12.6287 13.7391 11.966 13.9999 11.2778 14C10.8389 14.0004 10.4064 13.8944 10.0173 13.6913C9.62824 13.4881 9.29415 13.1937 9.04361 12.8333H1.16667C0.857247 12.8333 0.560501 12.7104 0.341709 12.4916C0.122916 12.2728 0 11.9761 0 11.6667V2.33333C0 2.02391 0.122916 1.72717 0.341709 1.50838C0.560501 1.28958 0.857247 1.16667 1.16667 1.16667H2.33333V0.388889ZM8.55556 11.2778C8.55539 10.6231 8.79119 9.99021 9.21974 9.49523C9.64829 9.00025 10.2409 8.67631 10.8889 8.58278V4.66667H0.777778V11.6667C0.777778 11.7698 0.81875 11.8687 0.891681 11.9417C0.964612 12.0146 1.06353 12.0556 1.16667 12.0556H8.66833C8.59332 11.8031 8.55533 11.5411 8.55556 11.2778ZM13.2222 11.2778C13.2222 11.7935 13.0174 12.2881 12.6527 12.6527C12.2881 13.0174 11.7935 13.2222 11.2778 13.2222C10.7621 13.2222 10.2675 13.0174 9.90285 12.6527C9.53819 12.2881 9.33333 11.7935 9.33333 11.2778C9.33333 10.7621 9.53819 10.2675 9.90285 9.90285C10.2675 9.53819 10.7621 9.33333 11.2778 9.33333C11.7935 9.33333 12.2881 9.53819 12.6527 9.90285C13.0174 10.2675 13.2222 10.7621 13.2222 11.2778Z" fill="black"/>
</svg>
