<svg width="16" height="14" viewBox="0 0 16 14" fill="none" xmlns="http://www.w3.org/2000/svg">
<path fill-rule="evenodd" clip-rule="evenodd" d="M6.79282 1.31512C6.54152 1.31512 6.30051 1.41495 6.12282 1.59265C5.94512 1.77034 5.8453 2.01135 5.8453 2.26265V3.84185C5.8453 4.19072 5.56248 4.47353 5.21361 4.47353C4.86475 4.47353 4.58193 4.19072 4.58193 3.84185V2.26265C4.58193 1.67628 4.81486 1.11393 5.22949 0.699312C5.64411 0.28469 6.20646 0.0517578 6.79282 0.0517578H13.1096C13.696 0.0517578 14.2584 0.28469 14.673 0.699312C15.0876 1.11393 15.3205 1.67628 15.3205 2.26265V11.7379C15.3205 12.3242 15.0876 12.8866 14.673 13.3012C14.2584 13.7158 13.696 13.9488 13.1096 13.9488H7.10866C6.51551 13.9488 5.90728 13.7144 5.4445 13.3518C4.98414 12.9911 4.58193 12.4307 4.58193 11.7379V10.1587C4.58193 9.8098 4.86475 9.52699 5.21361 9.52699C5.56248 9.52699 5.8453 9.8098 5.8453 10.1587V11.7379C5.8453 11.9172 5.95455 12.1464 6.22369 12.3573C6.4904 12.5663 6.82969 12.6854 7.10866 12.6854H13.1096C13.3609 12.6854 13.6019 12.5856 13.7796 12.4079C13.9573 12.2302 14.0572 11.9892 14.0572 11.7379V2.26265C14.0572 2.01135 13.9573 1.77034 13.7796 1.59265C13.6019 1.41495 13.3609 1.31512 13.1096 1.31512H6.79282ZM8.55704 3.39518C8.80373 3.1485 9.20369 3.1485 9.45037 3.39518L12.6088 6.5536C12.8555 6.80028 12.8555 7.20024 12.6088 7.44693L9.45037 10.6053C9.20369 10.852 8.80373 10.852 8.55704 10.6053C8.31035 10.3587 8.31035 9.95869 8.55704 9.71201L10.6371 7.63194H0.791838C0.44297 7.63194 0.160156 7.34913 0.160156 7.00026C0.160156 6.65139 0.44297 6.36858 0.791838 6.36858H10.6371L8.55704 4.28852C8.31035 4.04183 8.31035 3.64187 8.55704 3.39518Z" fill="black"/>
</svg>
