<svg width="13" height="14" viewBox="0 0 13 14" fill="none" xmlns="http://www.w3.org/2000/svg">
<path d="M9.22537 7.763L13 11.676L10.7741 13.972L7.0263 10.059V9.415L8.60856 7.763H9.22537ZM9.83548 5.992L9.18515 5.32L5.9737 8.68V10.059L2.19907 14L0 11.676L3.74781 7.763H5.06859L5.59154 7.217L3.01702 4.522H2.14544L0.261475 2.534L2.01805 0.7L3.89531 2.66V3.577L6.50335 6.265L8.28675 4.403L7.64311 3.696L8.5147 2.779H6.7313L6.29551 2.324L8.5147 0L8.95719 0.462V2.324L9.83548 1.4L12.0346 3.696C12.7653 4.466 12.7653 5.719 12.0346 6.482L10.7138 5.075L9.83548 5.992Z" fill="black"/>
</svg>
