<svg width="270" height="270" viewBox="0 0 270 270" fill="none" xmlns="http://www.w3.org/2000/svg">
<path d="M134.798 121.5C131.223 121.5 127.794 122.922 125.266 125.454C122.738 127.986 121.318 131.42 121.318 135C121.318 138.58 122.738 142.014 125.266 144.546C127.794 147.078 131.223 148.5 134.798 148.5C138.373 148.5 141.801 147.078 144.329 144.546C146.857 142.014 148.278 138.58 148.278 135C148.278 131.42 146.857 127.986 144.329 125.454C141.801 122.922 138.373 121.5 134.798 121.5ZM141.538 0C202.197 0 203.679 48.195 171.867 64.125C158.522 70.74 152.591 84.915 150.03 97.47C156.5 100.17 162.162 104.355 166.475 109.755C216.35 82.755 270 93.42 270 141.75C270 202.5 221.877 203.85 205.971 171.855C199.231 158.49 184.943 152.55 172.406 149.985C169.71 156.465 165.532 162 160.14 166.59C186.965 216.405 176.316 270 128.058 270C67.3989 270 66.1857 221.67 97.998 205.74C111.208 199.125 117.139 185.085 119.835 172.665C113.23 169.965 107.434 165.645 103.12 160.245C53.3799 186.975 0 176.445 0 128.25C0 67.5 47.988 66.015 63.8942 98.01C70.634 111.375 84.7878 117.18 97.324 119.745C99.8852 113.265 104.199 107.595 109.725 103.275C82.9007 53.46 93.5497 0 141.538 0Z" fill="white"/>
</svg>
