<svg width="111" height="482" viewBox="0 0 111 482" fill="none" xmlns="http://www.w3.org/2000/svg">
<g id="fire">
<g id="gas">
<path d="M80.5838 22.2516H66.692V30.7244H80.5838V22.2516Z" fill="#D4BB81"/>
<path d="M66.692 22.2516H60.5988V30.7244H66.692V22.2516Z" fill="#BEA96F"/>
<path d="M59.4338 9.07092H51.5828L51.554 18.9171H59.4627L59.4338 9.07092Z" fill="#D4BB81"/>
<path d="M51.5592 16.1702L51.554 18.9171H59.4627L59.4574 16.1702H51.5592Z" fill="#BEA96F"/>
<path d="M51.5592 7.62792L51.554 11.3074H59.4627L59.4574 7.62792H51.5592Z" fill="#BEA96F"/>
<path d="M59.494 17.9293H51.5211C49.6938 17.9293 48.2128 19.4116 48.2128 21.2389V47.2934H62.8037V21.2389C62.8037 19.4116 61.3213 17.9293 59.494 17.9293Z" fill="#D4BB81"/>
<path d="M62.8037 38.3197H48.2128V47.2934H62.8037V38.3197Z" fill="#BEA96F"/>
<path d="M63.5727 42.0529H47.4431C46.2179 42.0529 45.2249 43.0472 45.2249 44.2724V53.8497H65.7922V44.2724C65.7922 43.0472 64.7979 42.0529 63.5727 42.0529Z" fill="#BEA96F"/>
<path d="M63.5727 41.397H47.4431V42.7088H63.5727" fill="#9E8E5D"/>
<path d="M65.8946 50.2987H45.1214C43.4449 50.2987 42.0846 51.659 42.0846 53.3354V58.3621H68.9314V53.3354C68.9314 51.659 67.5724 50.2987 65.8946 50.2987Z" fill="#D4BB81"/>
<path d="M46.1312 9.07088H65.3973C65.9863 9.07088 66.4638 8.5934 66.4638 8.00441V5.44908C66.4638 4.23831 65.4826 3.25709 64.2718 3.25709H47.2554C46.0447 3.25709 45.0634 4.23831 45.0634 5.44908V8.00441C45.0634 8.5934 45.5409 9.07088 46.1312 9.07088Z" fill="#0E1E35"/>
<path d="M51.933 0H59.5951C60.4163 0 61.164 0.472232 61.5168 1.2147L62.8037 3.92221H48.7231L50.01 1.2147C50.3628 0.472232 51.1105 0 51.933 0Z" fill="#0E1E35"/>
<path d="M49.5303 9.0708H48.3038V9.07212H49.5303V9.0708Z" fill="white"/>
<path d="M49.5303 9.0708H48.3038V3.25716H49.0397L48.7231 3.92221L49.5303 3.92224V9.07212" fill="#374256"/>
<path d="M48.7231 3.92221L49.0397 3.25716H49.5299L49.5303 3.92224L48.7231 3.92221Z" fill="#374256"/>
<path d="M54.1213 9.07092H52.8935V9.07224H54.1213V9.07092Z" fill="#C6B585"/>
<path d="M54.1213 9.07092H52.8935V3.92226H54.1213V9.07224" fill="#374256"/>
<path d="M54.1213 3.25709H52.8935V3.92226H54.1213V3.25709Z" fill="#374256"/>
<path d="M58.7113 9.0708H57.4848V9.07212H58.7113V9.0708Z" fill="#C6B585"/>
<path d="M58.7113 9.0708H57.4848V3.92218H58.7113V9.07212" fill="#374256"/>
<path d="M58.7113 3.25716H57.4848V3.92218H58.7113V3.25716Z" fill="#374256"/>
<path d="M63.3023 9.07092H62.0745V9.07224H63.3023V9.07092Z" fill="white"/>
<path d="M63.3023 9.07092H62.0745V3.92217L62.8037 3.92221L62.4877 3.25709H63.3023V9.07224" fill="#374256"/>
<path d="M62.0745 3.92217V3.25709H62.4877L62.8037 3.92221L62.0745 3.92217Z" fill="#374256"/>
<path d="M62.0993 26.591C62.0993 30.2311 59.1478 33.1813 55.5077 33.1813C51.8675 33.1813 48.9173 30.2311 48.9173 26.591C48.9173 22.9508 51.8675 19.9993 55.5077 19.9993C59.1478 19.9993 62.0993 22.9508 62.0993 26.591Z" fill="#BEA96F"/>
<path d="M61.2508 26.5909C61.2508 29.7615 58.6797 32.3326 55.5078 32.3326C52.3372 32.3326 49.7662 29.7615 49.7662 26.5909C49.7662 23.4191 52.3372 20.848 55.5078 20.848C58.6797 20.848 61.2508 23.4191 61.2508 26.5909Z" fill="#D4BB81"/>
<path d="M59.5246 26.591C59.5246 28.8079 57.7262 30.6063 55.508 30.6063C53.2898 30.6063 51.4926 28.8079 51.4926 26.591C51.4926 24.3728 53.2898 22.5743 55.508 22.5743C57.7262 22.5743 59.5246 24.3728 59.5246 26.591Z" fill="#A2905D"/>
<path d="M57.3181 26.5909C57.3181 27.5892 56.5074 28.3998 55.5079 28.3998C54.5083 28.3998 53.6989 27.5892 53.6989 26.5909C53.6989 25.5913 54.5083 24.7807 55.5079 24.7807C56.5074 24.7807 57.3181 25.5913 57.3181 26.5909Z" fill="#BEA96F"/>
<path d="M70.1212 54.9897H40.4213C37.8594 54.9897 35.7816 57.0662 35.7816 59.6295V81.0652H74.761V59.6295C74.761 57.0662 72.6831 54.9897 70.1212 54.9897Z" fill="#609BD3"/>
<path d="M74.761 70.5696H35.7816V81.0652H74.761V70.5696Z" fill="#4183C4"/>
<path d="M94.0331 26.2825C94.0331 32.4754 89.0116 37.4956 82.8187 37.4956C76.6245 37.4956 71.603 32.4754 71.603 26.2825C71.603 20.0896 76.6245 15.0682 82.8187 15.0682C89.0116 15.0682 94.0331 20.0896 94.0331 26.2825Z" fill="#3F4651"/>
<path d="M92.134 26.2827C92.134 31.4261 87.9638 35.5976 82.8191 35.5976C77.6743 35.5976 73.5028 31.4261 73.5028 26.2827C73.5028 21.1379 77.6743 16.9678 82.8191 16.9678C87.9638 16.9678 92.134 21.1379 92.134 26.2827Z" fill="white"/>
<path d="M82.8192 26.2826L77.0316 22.3368L77.5078 21.7452C79.3417 19.4705 82.4322 18.6376 85.1607 19.6844L85.5805 19.8457L82.8192 26.2826Z" fill="#45B872"/>
<path d="M82.8192 26.2826L77.6911 31.299L76.0777 28.4643L82.8192 26.2826Z" fill="#F04C48"/>
<path d="M85.007 31.947H80.5837V32.5229H85.007V31.947Z" fill="#767375"/>
<path d="M77.9603 31.1402C76.6183 29.7996 75.948 28.0418 75.948 26.2827C75.948 24.5236 76.6183 22.7658 77.9603 21.4239C79.3114 20.0728 81.0836 19.4116 82.8558 19.4116C84.6018 19.4116 86.3438 20.0911 87.6779 21.4239C89.0198 22.7658 89.6902 24.5236 89.6902 26.2827C89.6902 28.0418 89.0198 29.7996 87.6779 31.1402L87.8642 31.3278C89.2573 29.9347 89.9538 28.1087 89.9538 26.2827C89.9538 24.4567 89.2573 22.6307 87.8642 21.2376C86.4816 19.8537 84.67 19.148 82.8558 19.148C81.0193 19.148 79.1763 19.834 77.774 21.2376C76.3809 22.6307 75.683 24.4567 75.683 26.2827C75.683 28.1087 76.3809 29.9347 77.774 31.3278L77.9603 31.1402Z" fill="#17455A"/>
<path d="M82.5435 20.0532L82.3887 18.5236L82.4765 18.5197L82.5435 20.0532ZM83.9772 20.1555L84.1727 18.6299L84.2514 18.6443L83.9772 20.1555ZM81.1294 20.2788L80.6361 18.8227L80.7135 18.8004L81.1294 20.2788ZM85.352 20.5831L85.2733 20.549L85.5805 19.8457L85.9488 19.169L85.352 20.5831ZM79.7454 20.8546L78.9885 19.5193L79.0239 19.4996L79.8123 20.8166L79.7454 20.8546ZM86.5824 21.3098L86.5181 21.2613L87.4324 20.0282L87.4587 20.0492L86.5824 21.3098ZM78.6449 21.6496L77.5495 20.5713L77.6059 20.5188L78.6449 21.6496ZM87.6043 22.2858L88.7363 21.2456L88.7954 21.3164L87.6043 22.2858ZM77.6912 22.7318L76.3847 21.9238L76.4345 21.8503L77.6912 22.7318ZM88.3927 23.4848L89.7267 22.7213L89.77 22.8066L88.3927 23.4848ZM77.013 24.0016L75.5556 23.511L75.5924 23.4152L77.013 24.0016ZM88.8846 24.8359L90.359 24.4017L90.3774 24.4791L88.8846 24.8359ZM76.6496 25.375L75.1188 25.2268L75.1306 25.1494L76.6496 25.375ZM90.5886 26.2552H89.0538L90.5886 26.1555V26.2552ZM75.0821 27.0134L75.0755 26.9374L76.605 26.8022L75.0821 27.0134ZM90.3839 28.055L88.9029 27.651L90.4115 27.9356L90.3839 28.055ZM75.4533 28.766L75.4231 28.6768L76.8884 28.219L75.4533 28.766ZM89.7976 29.7039L88.4163 29.0349L88.4517 28.9614L89.829 29.6383L89.7976 29.7039ZM76.2128 30.3795L76.1603 30.2929L77.4905 29.5255L76.2128 30.3795ZM88.8229 31.2164L87.6502 30.2247L88.8859 31.1377L88.8229 31.2164ZM77.3239 31.7765L77.2649 31.7161L78.3615 30.6418L77.3239 31.7765Z" fill="#3F4651"/>
<path d="M82.5435 20.0532L82.5817 20.0491L82.4308 18.5603H82.44L82.5056 20.0544L82.5435 20.0532L82.5817 20.0518L82.5148 18.5183L82.5135 18.479L82.3862 18.4855L82.3469 18.4881L82.5056 20.057L82.5817 20.0518L82.5435 20.0532ZM83.9772 20.1555L84.0154 20.1593L84.2056 18.6744L84.207 18.6757L83.9393 20.1475L83.9772 20.1555L84.0154 20.162L84.2962 18.6128L84.1794 18.5918L84.14 18.5852L83.9393 20.1502L84.0154 20.162L83.9772 20.1555ZM81.1294 20.2788L81.1649 20.2669L80.6848 18.8489H80.6875L81.0928 20.2892L81.1294 20.2788L81.1663 20.2682L80.7399 18.7531L80.6258 18.7859L80.5864 18.7977L81.0928 20.2892L81.1663 20.2682L81.1294 20.2788ZM85.352 20.5831L85.3679 20.5476L85.3246 20.5293L85.6145 19.8616L85.3167 20.5673L85.352 20.5831L85.3876 20.5975L85.9844 19.1834L85.9149 19.1506L85.5463 19.8275L85.238 20.5332L85.2236 20.5686L85.3377 20.6185L85.3731 20.6329L85.3876 20.5975L85.352 20.5831ZM79.7454 20.8546L79.7784 20.8362L79.0412 19.5336L79.0425 19.5323L79.0239 19.4996L78.9913 19.5192L79.76 20.8021L79.7272 20.8205L79.7454 20.8546L79.764 20.8874L79.8322 20.8493L79.8663 20.8297L79.0386 19.447L78.9703 19.4851L78.9362 19.5034L79.7312 20.907L79.764 20.8874L79.7454 20.8546ZM86.5824 21.3098L86.6062 21.2783L86.5721 21.2534L87.4628 20.0505L87.4324 20.0282L87.409 20.0583L87.4365 20.0793L87.4587 20.0492L87.4274 20.0268L86.5511 21.2875L86.5824 21.3098L86.6141 21.3321L87.5113 20.04L87.4562 19.998L87.4247 19.9744L86.4645 21.2704L86.5603 21.3412L86.5918 21.3635L86.6141 21.3321L86.5824 21.3098ZM78.6449 21.6496L78.6713 21.622L77.6048 20.5725L77.631 20.5476L77.6059 20.5188L77.5772 20.545L78.6162 21.6744L78.6449 21.6496L78.6726 21.6233L77.6074 20.465L77.5235 20.5424L77.4933 20.5699L78.6175 21.6757L78.6726 21.6233L78.6449 21.6496ZM87.6043 22.2858L87.6307 22.3146L88.7326 21.3019L88.7405 21.3111L87.5808 22.2569L87.6043 22.2858L87.6294 22.3159L88.8493 21.3216L88.7667 21.2219L88.7405 21.1904L87.5782 22.2582L87.6294 22.3159L87.6043 22.2858ZM77.6912 22.7318L77.711 22.6989L76.4386 21.9119L76.4439 21.904L77.6691 22.7632L77.6912 22.7318L77.7123 22.7002L76.4255 21.7964L76.3534 21.9014L76.3297 21.9342L77.6704 22.7645L77.7123 22.7002L77.6912 22.7318ZM88.3927 23.4848L88.4112 23.5175L89.7112 22.7737L89.719 22.7894L88.3758 23.4506L88.3927 23.4848L88.4099 23.5188L89.8227 22.8249L89.761 22.7042L89.7427 22.6675L88.3732 23.4519L88.4099 23.5188L88.3927 23.4848ZM77.013 24.0016L77.025 23.9648L75.607 23.4873L75.6148 23.4663L76.9987 24.0369L77.013 24.0016L77.0276 23.9661L75.5715 23.3653L75.5204 23.4965L75.5059 23.5345L77.0014 24.0369L77.0276 23.9661L77.013 24.0016ZM88.8846 24.8359L88.8952 24.8725L90.3303 24.4502L90.3316 24.4515L88.8756 24.7991L88.8846 24.8359L88.8939 24.8739L90.4235 24.5079L90.3959 24.3938L90.3867 24.3544L88.8729 24.7991L88.8939 24.8739L88.8846 24.8359ZM76.6496 25.375L76.6537 25.3369L75.1636 25.1926L75.1688 25.1546L75.1306 25.1494L75.1255 25.1874L76.6446 25.413L76.6496 25.375L76.6551 25.3382L75.136 25.1113L75.098 25.106L75.0809 25.2215L75.0757 25.2608L76.6459 25.4143L76.6551 25.3382L76.6496 25.375ZM90.5886 26.2552L90.5887 26.2171H90.2411L90.5507 26.1961V26.2552L90.5886 26.2552L90.6268 26.2552V26.1148L89.0513 26.2171L89.054 26.2932H90.6281L90.6268 26.2552L90.5886 26.2552ZM75.0821 27.0134L75.1203 27.0107L75.1164 26.9727L76.6078 26.8402L76.605 26.8022L76.6 26.7641L75.077 26.9753L75.0821 27.0134L75.0875 27.0514L76.6105 26.8402L76.6 26.7641L75.0717 26.8992L75.0337 26.9019L75.0442 27.0173L75.0468 27.0567L75.0875 27.0514L75.0821 27.0134ZM90.3839 28.055L90.3946 28.0182L89.8358 27.866L90.3657 27.9657L90.3474 28.047L90.3839 28.055L90.4221 28.0641L90.4497 27.9434L90.4589 27.9054L88.9097 27.6142L88.8926 27.6889L90.413 28.1034L90.4221 28.0641L90.3839 28.055ZM75.4533 28.766L75.4889 28.7541L75.4718 28.7016L75.7106 28.6268L75.4391 28.7305L75.4533 28.766L75.4666 28.8026L76.903 28.2543L76.8781 28.1822L75.3748 28.6518L75.4167 28.7777L75.4286 28.8171L75.4666 28.8026L75.4533 28.766ZM89.7976 29.7039L89.8148 29.6684L88.4676 29.0164L88.4689 29.0125L89.7781 29.6566L89.7636 29.6868L89.7976 29.7039L89.8332 29.7196L89.8646 29.6553L89.8804 29.6212L88.4348 28.9102L88.364 29.0519L89.8161 29.755L89.8332 29.7196L89.7976 29.7039ZM76.2128 30.3795L76.2458 30.3597L76.2143 30.3059L76.5055 30.1393L76.192 30.3466L76.2128 30.3795L76.2353 30.4109L77.5116 29.5582L77.471 29.4926L76.1081 30.2784L76.1802 30.3991L76.2012 30.4332L76.2353 30.4109L76.2128 30.3795ZM88.8229 31.2164L88.848 31.1861L88.566 30.9487L88.831 31.1441L88.7929 31.1914L88.8229 31.2164L88.8533 31.2399L88.9162 31.1612L88.9412 31.1297L87.674 30.1931L87.6254 30.2534L88.8283 31.2701L88.8533 31.2399L88.8229 31.2164ZM77.3239 31.7765L77.3516 31.7502L77.3188 31.7174L77.3923 31.6452L77.2952 31.7502L77.3239 31.7765L77.3516 31.8027L78.3892 30.668L78.3341 30.6142L77.2099 31.7161L77.2965 31.804L77.3241 31.8328L77.3516 31.8027L77.3239 31.7765Z" fill="#3F4651"/>
<path d="M83.7384 26.2827C83.7384 26.7904 83.3265 27.2023 82.8189 27.2023C82.3112 27.2023 81.8993 26.7904 81.8993 26.2827C81.8993 25.775 82.3112 25.3632 82.8189 25.3632C83.3265 25.3632 83.7384 25.775 83.7384 26.2827Z" fill="#3F4651"/>
<path d="M79.9042 28.0366C80.0302 28.2425 80.2728 28.3213 80.4421 28.2111L88.4006 23.0204L88.4268 22.8341L88.2498 22.7725L79.9948 27.4791C79.8203 27.5788 79.7783 27.8306 79.9042 28.0366Z" fill="#3F4651"/>
<path d="M81.3878 85.5435V81.2658C81.3878 78.0703 78.7984 75.4809 75.6029 75.4809H34.9405C31.745 75.4809 29.1542 78.0703 29.1542 81.2658V85.5435C29.1542 88.9502 27.8608 92.2309 25.5337 94.7194C9.12602 112.276 0 135.409 0 159.44V447.818C0 456.684 7.18722 463.871 16.0535 463.871H94.4885C103.355 463.871 110.543 456.684 110.543 447.818V159.44C110.543 135.409 101.416 112.276 85.0083 94.7194C82.6825 92.2309 81.3878 88.9502 81.3878 85.5435Z" fill="#609BD3"/>
<path d="M29.0993 88.8321H80.8829V86.9694H29.0993" fill="#4183C4"/>
<path d="M98.9812 482H11.5605C9.48003 482 7.7944 480.313 7.7944 478.234V472.902C7.7944 467.877 11.8675 463.804 16.8916 463.804H93.6501C98.6755 463.804 102.749 467.877 102.749 472.902V478.234C102.749 480.313 101.062 482 98.9812 482Z" fill="#609BD3"/>
<path d="M25.6307 476.22H14.7324C14.213 476.22 13.8339 475.651 13.9624 475.066L15.1614 469.609C15.2519 469.2 15.5693 468.912 15.9314 468.912H24.4317C24.7937 468.912 25.1112 469.2 25.2017 469.609L26.4007 475.066C26.5292 475.651 26.1501 476.22 25.6307 476.22Z" fill="#286195"/>
<path d="M51.7613 476.22H33.8858C33.3663 476.22 32.9872 475.651 33.1158 475.066L34.3147 469.609C34.4052 469.2 34.7214 468.912 35.0847 468.912H50.5624C50.9244 468.912 51.2419 469.2 51.3311 469.609L52.5313 475.066C52.6599 475.651 52.2808 476.22 51.7613 476.22Z" fill="#286195"/>
<path d="M86.4618 476.22H97.3614C97.8795 476.22 98.2599 475.651 98.1314 475.066L96.9311 469.609C96.8419 469.2 96.5244 468.913 96.1611 468.913H87.6621C87.2987 468.913 86.9826 469.2 86.8921 469.609L85.6931 475.066C85.5646 475.651 85.9437 476.22 86.4618 476.22Z" fill="#286195"/>
<path d="M60.3311 476.22H78.208C78.7261 476.22 79.1065 475.651 78.978 475.066L77.7777 469.609C77.6885 469.2 77.371 468.912 77.009 468.912H61.5314C61.168 468.912 60.8505 469.2 60.7613 469.609L59.5611 475.066C59.4325 475.651 59.8129 476.22 60.3311 476.22Z" fill="#286195"/>
<path d="M13.938 464.66H96.6061V462.797H13.938" fill="#4183C4"/>
</g>
<path id="gasIsi" d="M76.2481 110.278V106.379C76.2481 103.467 74.1456 101.107 71.5509 101.107H38.5345C35.9399 101.107 33.8363 103.467 33.8363 106.379V110.278C33.8363 113.383 32.7861 116.372 30.8965 118.64C17.5741 134.641 10.1641 155.723 10.1641 177.624V440.439C10.1641 448.519 15.9998 455.069 23.1989 455.069H86.8854C94.0845 455.069 99.9214 448.519 99.9214 440.439V177.624C99.9214 155.723 92.5103 134.641 79.1878 118.64C77.2994 116.372 76.2481 113.383 76.2481 110.278Z" fill="white"/>
</g>
</svg>
