<svg width="1403" height="908" viewBox="0 0 1403 908" fill="none" xmlns="http://www.w3.org/2000/svg">
<path d="M1265.29 284.275C1259.86 296.806 1252.11 308.578 1241.86 318.824C1227.31 333.378 1209.71 342.968 1191.14 347.82C1265.15 450.008 1305.2 572.534 1305.2 701.35C1305.2 728.196 1326.96 749.963 1353.81 749.963C1380.66 749.963 1402.42 728.196 1402.42 701.35C1402.42 549.045 1354.31 404.221 1265.29 284.275Z" fill="url(#paint0_linear_778_193)"/>
<path d="M1197.18 205.385C1089.61 97.8189 953.131 29.5299 805.148 7.72192C810.171 20.4369 813.022 34.2489 813.022 48.7489C813.022 69.3209 807.37 88.53 797.678 105.088C922.473 124.959 1037.48 183.183 1128.43 274.137C1137.92 283.627 1150.36 288.375 1162.8 288.375C1175.24 288.375 1187.69 283.627 1197.18 274.137C1216.16 255.152 1216.16 224.369 1197.18 205.385Z" fill="url(#paint1_linear_778_193)"/>
<path d="M701.211 0.135986C548.902 0.135986 404.077 48.247 284.134 137.269C296.667 142.706 308.438 150.452 318.685 160.697C333.24 175.254 342.831 192.849 347.682 211.425C449.87 137.415 572.395 97.362 701.211 97.362C728.06 97.362 749.824 75.595 749.824 48.748C749.824 21.901 728.06 0.135986 701.211 0.135986Z" fill="url(#paint2_linear_778_193)"/>
<path d="M48.613 749.963C21.764 749.963 0 728.196 0 701.35C0 513.875 72.891 337.738 205.249 205.385C224.233 186.405 255.013 186.41 273.998 205.385C292.983 224.369 292.98 255.152 273.996 274.136C160.004 388.126 97.227 539.847 97.227 701.349C97.227 728.196 75.462 749.963 48.613 749.963Z" fill="url(#paint3_linear_778_193)"/>
<path d="M701.434 907.844C815.749 907.844 908.42 815.173 908.42 700.858C908.42 586.543 815.749 493.872 701.434 493.872C587.119 493.872 494.448 586.543 494.448 700.858C494.448 815.173 587.119 907.844 701.434 907.844Z" fill="#E6E6E6"/>
<path d="M770.389 769.813C808.472 731.73 808.472 669.986 770.389 631.903C732.307 593.82 670.562 593.82 632.479 631.903C594.397 669.986 594.397 731.73 632.479 769.813C670.562 807.895 732.307 807.895 770.389 769.813Z" fill="#474747"/>
<path d="M701.466 720.309C694.287 720.309 687.382 716.317 684.001 709.44C679.261 699.801 683.231 688.148 692.87 683.408L1161.27 453.108C1170.93 448.367 1182.57 452.342 1187.3 461.977C1192.04 471.616 1188.07 483.268 1178.43 488.009L710.033 718.309C707.271 719.666 704.343 720.309 701.466 720.309Z" fill="#474747"/>
<defs>
<linearGradient id="paint0_linear_778_193" x1="1191.14" y1="517.119" x2="1402.42" y2="517.119" gradientUnits="userSpaceOnUse">
<stop stop-color="#00963A"/>
<stop offset="0.1576" stop-color="#06A541"/>
<stop offset="0.4706" stop-color="#0FBD4B"/>
<stop offset="0.7597" stop-color="#14CC52"/>
<stop offset="1" stop-color="#16D154"/>
</linearGradient>
<linearGradient id="paint1_linear_778_193" x1="797.678" y1="148.048" x2="1211.42" y2="148.048" gradientUnits="userSpaceOnUse">
<stop stop-color="#FFAC05"/>
<stop offset="0.1821" stop-color="#FFBE10"/>
<stop offset="0.494" stop-color="#FFD820"/>
<stop offset="0.776" stop-color="#FFE82A"/>
<stop offset="1" stop-color="#FFED2D"/>
</linearGradient>
<linearGradient id="paint2_linear_778_193" x1="284.134" y1="105.78" x2="749.824" y2="105.78" gradientUnits="userSpaceOnUse">
<stop stop-color="#FF4D05"/>
<stop offset="0.2771" stop-color="#FF6E16"/>
<stop offset="0.5535" stop-color="#FF8822"/>
<stop offset="0.8024" stop-color="#FF982A"/>
<stop offset="1" stop-color="#FF9D2D"/>
</linearGradient>
<linearGradient id="paint3_linear_778_193" x1="0.0002" y1="470.557" x2="288.235" y2="470.557" gradientUnits="userSpaceOnUse">
<stop stop-color="#FF0508"/>
<stop offset="0.0461" stop-color="#FF0C0B"/>
<stop offset="0.3221" stop-color="#FF2F1A"/>
<stop offset="0.5813" stop-color="#FF4924"/>
<stop offset="0.8147" stop-color="#FF592B"/>
<stop offset="1" stop-color="#FF5E2D"/>
</linearGradient>
</defs>
</svg>
