<svg width="102" height="113" viewBox="0 0 102 113" fill="none" xmlns="http://www.w3.org/2000/svg">
<path id="gas" d="M51 113C79.169 113 102 98.875 102 74.1562C102 63.5625 97.75 45.9062 80.75 31.7812C82.875 42.375 70.125 45.9062 70.125 45.9062C76.5 28.25 59.5 3.53125 34 0C37.0345 14.125 38.25 28.25 17 42.375C6.375 49.4375 0 61.6486 0 74.1562C0 98.875 22.831 113 51 113ZM51 105.938C36.9155 105.938 25.5 98.875 25.5 86.5156C25.5 81.2188 27.625 72.3906 36.125 65.3281C35.0625 70.625 42.5 74.1562 42.5 74.1562C39.3125 65.3281 46.75 51.2031 59.5 49.4375C57.9785 56.5 57.375 63.5625 68 70.625C73.3125 74.1562 76.5 80.2582 76.5 86.5156C76.5 98.875 65.0845 105.938 51 105.938Z" fill="black"/>
</svg>
