<svg width="35" height="41" viewBox="0 0 35 41" fill="none" xmlns="http://www.w3.org/2000/svg">
<g id="hand">
<path id="isiTangan" fill-rule="evenodd" clip-rule="evenodd" d="M32.1608 24.9633C32.157 28.4571 30.7733 31.8067 28.3133 34.2772C25.8533 36.7477 22.518 38.1373 19.0391 38.1412C15.3249 38.1412 12.932 37.248 10.7778 35.0572C8.36669 32.6028 6.14692 28.4408 3.34761 22.507C3.33132 22.4707 3.31307 22.4352 3.29294 22.4009C3.00293 21.8963 2.92439 21.2967 3.0746 20.7339C3.22481 20.1712 3.59147 19.6914 4.09391 19.4001C4.59635 19.1089 5.19342 19.03 5.75377 19.1809C6.31411 19.3317 6.79184 19.7 7.08185 20.2045C7.0894 20.2191 7.09792 20.2332 7.10736 20.2466L10.5099 25.7375C10.6771 26.0083 10.9276 26.217 11.2236 26.3319C11.5196 26.4468 11.8448 26.4615 12.1499 26.374C12.4549 26.2864 12.7232 26.1013 12.9141 25.8467C13.1049 25.5921 13.2078 25.2819 13.2072 24.9633V8.12476C13.2072 7.54226 13.4376 6.98361 13.8477 6.57172C14.2578 6.15983 14.8141 5.92843 15.3941 5.92843C15.9741 5.92843 16.5304 6.15983 16.9405 6.57172C17.3507 6.98361 17.5811 7.54226 17.5811 8.12476V19.1064C17.5811 19.4947 17.7347 19.8671 18.0081 20.1417C18.2815 20.4163 18.6524 20.5706 19.0391 20.5706C19.4257 20.5706 19.7966 20.4163 20.07 20.1417C20.3434 19.8671 20.497 19.4947 20.497 19.1064V5.19633C20.497 4.61382 20.7274 4.05518 21.1376 3.64329C21.5477 3.2314 22.104 3 22.684 3C23.264 3 23.8203 3.2314 24.2304 3.64329C24.6405 4.05518 24.8709 4.61382 24.8709 5.19633V19.1064C24.8709 19.4947 25.0246 19.8671 25.298 20.1417C25.5714 20.4163 25.9422 20.5706 26.3289 20.5706C26.7156 20.5706 27.0864 20.4163 27.3599 20.1417C27.6333 19.8671 27.7869 19.4947 27.7869 19.1064V11.0532C27.7869 10.4707 28.0173 9.91205 28.4274 9.50016C28.8376 9.08827 29.3938 8.85687 29.9739 8.85687C30.5539 8.85687 31.1101 9.08827 31.5203 9.50016C31.9304 9.91205 32.1608 10.4707 32.1608 11.0532V24.9633Z" fill="#D9D9D9"/>
<path id="outlineTangan" d="M29.8971 5.85882C29.1403 5.85775 28.393 6.02725 27.7101 6.35482V5.12671C27.7106 3.90528 27.2766 2.72385 26.4865 1.79531C25.6963 0.866767 24.6019 0.252185 23.4004 0.062311C22.199 -0.127563 20.9695 0.119757 19.9336 0.759704C18.8976 1.39965 18.1234 2.39014 17.7503 3.55268C16.9732 3.12937 16.0999 2.91608 15.216 2.93369C14.3322 2.95131 13.468 3.19923 12.7082 3.65316C11.9485 4.10709 11.3192 4.75147 10.882 5.52314C10.4448 6.29481 10.2147 7.16731 10.2143 8.05514V19.7689L9.51816 18.6469C8.84195 17.475 7.73127 16.6195 6.42889 16.2676C5.1265 15.9157 3.73835 16.0958 2.56784 16.7687C1.39734 17.4416 0.539692 18.5525 0.182365 19.8586C-0.174962 21.1646 -0.00290428 22.5597 0.660929 23.7387C3.57689 29.9195 5.93335 34.303 8.62879 37.043C11.3516 39.8176 14.4425 41 18.9622 41C23.2142 40.9952 27.2907 39.2967 30.2973 36.2772C33.3039 33.2577 34.9952 29.1638 35 24.8936V10.9836C35 9.62441 34.4624 8.3209 33.5054 7.35983C32.5484 6.39875 31.2505 5.85882 29.8971 5.85882ZM32.084 24.8936C32.0802 28.3874 30.6965 31.7371 28.2365 34.2076C25.7765 36.6781 22.4412 38.0677 18.9622 38.0716C15.248 38.0716 12.8551 37.1784 10.7009 34.9876C8.28981 32.5332 6.07003 28.3711 3.27071 22.4374C3.25442 22.401 3.23617 22.3656 3.21604 22.3312C2.92603 21.8267 2.84749 21.227 2.9977 20.6643C3.14792 20.1015 3.51457 19.6218 4.01702 19.3305C4.51946 19.0393 5.11653 18.9604 5.67688 19.1113C6.23723 19.2621 6.71495 19.6303 7.00496 20.1349C7.01252 20.1495 7.02104 20.1636 7.03048 20.177L10.433 25.6678C10.6002 25.9387 10.8508 26.1474 11.1467 26.2623C11.4427 26.3771 11.7679 26.3919 12.073 26.3044C12.3781 26.2168 12.6464 26.0317 12.8372 25.7771C13.028 25.5225 13.1309 25.2123 13.1303 24.8936V8.05514C13.1303 7.47264 13.3607 6.914 13.7709 6.50211C14.181 6.09022 14.7373 5.85882 15.3173 5.85882C15.8973 5.85882 16.4536 6.09022 16.8637 6.50211C17.2738 6.914 17.5042 7.47264 17.5042 8.05514V19.0368C17.5042 19.4251 17.6579 19.7975 17.9313 20.0721C18.2047 20.3467 18.5755 20.501 18.9622 20.501C19.3489 20.501 19.7197 20.3467 19.9932 20.0721C20.2666 19.7975 20.4202 19.4251 20.4202 19.0368V5.12671C20.4202 4.54421 20.6506 3.98557 21.0608 3.57368C21.4709 3.16179 22.0272 2.93039 22.6072 2.93039C23.1872 2.93039 23.7435 3.16179 24.1536 3.57368C24.5637 3.98557 24.7941 4.54421 24.7941 5.12671V19.0368C24.7941 19.4251 24.9477 19.7975 25.2212 20.0721C25.4946 20.3467 25.8654 20.501 26.2521 20.501C26.6388 20.501 27.0096 20.3467 27.2831 20.0721C27.5565 19.7975 27.7101 19.4251 27.7101 19.0368V10.9836C27.7101 10.4011 27.9405 9.84243 28.3506 9.43054C28.7608 9.01865 29.317 8.78725 29.8971 8.78725C30.4771 8.78725 31.0334 9.01865 31.4435 9.43054C31.8536 9.84243 32.084 10.4011 32.084 10.9836V24.8936Z" fill="black"/>
</g>
</svg>
