<svg width="221" height="270" viewBox="0 0 221 270" fill="none" xmlns="http://www.w3.org/2000/svg">
<path fill-rule="evenodd" clip-rule="evenodd" d="M114.629 1.66849C113.382 0.583207 111.891 0 110.361 0C108.832 0 107.34 0.583207 106.094 1.66849L3.09011 91.6703C2.13519 92.502 1.35655 93.6008 0.81904 94.8752C0.281533 96.1495 0.000722812 97.5625 0 98.9965L0 261C0 263.387 0.775154 265.676 2.15494 267.364C3.53472 269.052 5.40611 270 7.35741 270H29.4297V143.997H103.004V270H213.365C215.316 270 217.188 269.052 218.567 267.364C219.947 265.676 220.722 263.387 220.722 261V98.9965C220.722 97.5625 220.441 96.1495 219.903 94.8752C219.366 93.6008 218.587 92.502 217.632 91.6703L206.008 81.5001V35.9952H191.293V68.6479L114.629 1.66849ZM161.863 215.999V143.997H176.578V215.999H161.863Z" fill="white"/>
<path d="M88.289 269.997V215.996H73.5742V197.995H88.289V161.995H44.1445V269.997H88.289Z" fill="white"/>
</svg>
