<svg width="180" height="270" viewBox="0 0 180 270" fill="none" xmlns="http://www.w3.org/2000/svg">
<path d="M62.9998 252H116.999V270H62.9998V252ZM53.9998 225H125.999V243H53.9998V225ZM153.798 26.2634C136.884 9.3265 114.226 0.000255063 89.9996 0.000255063C78.1728 -0.0279343 66.4569 2.28074 55.525 6.79368C44.593 11.3066 34.6604 17.9349 26.2976 26.2978C17.9348 34.6606 11.3065 44.5934 6.79363 55.5254C2.28072 66.4574 -0.0279341 78.1733 0.000255061 90.0002C0.000255061 116.224 10.0521 140.755 27.5625 157.298L30.015 159.598C40.1456 169.071 53.9998 182.048 53.9998 193.5V216H80.9996V142.374L56.0923 128.25L66.3747 113.468L89.9996 126L113.225 113.406L123.969 127.851L98.9995 142.476V216H125.999V193.5C125.999 182.318 139.702 169.352 149.708 159.879L152.47 157.258C170.481 140.063 179.999 116.781 179.999 90.0002C180.058 78.1722 177.774 66.4496 173.276 55.5098C168.779 44.5699 162.159 34.6297 153.798 26.2634Z" fill="white"/>
</svg>
