<svg width="63" height="55" viewBox="0 0 63 55" fill="none" xmlns="http://www.w3.org/2000/svg">
<path d="M33.4688 46.9792H3.9375C2.89321 46.9792 1.89169 46.5667 1.15327 45.8325C0.414842 45.0983 0 44.1025 0 43.0642V3.91493C0 2.87663 0.414842 1.88085 1.15327 1.14666C1.89169 0.412465 2.89321 0 3.9375 0H59.0625C60.1068 0 61.1083 0.412465 61.8467 1.14666C62.5852 1.88085 63 2.87663 63 3.91493V24.2138C60.3772 20.8925 56.562 18.7108 52.3556 18.127C48.1493 17.5432 43.879 18.6027 40.4417 21.0829C37.0043 23.5632 34.6673 27.2713 33.9214 31.4284C33.1756 35.5856 34.0788 39.8684 36.4416 43.3774L34.6106 45.6089L33.4688 46.9792ZM9.84375 11.7448V14.8767H43.3125V11.7448H9.84375ZM9.84375 22.7066H31.5V19.5747H9.84375V22.7066ZM9.84375 36.4089H29.5312V33.2769H9.84375V36.4089Z" fill="black"/>
<path d="M62.9995 34.2858C63.0048 32.2195 62.4876 30.1842 61.4943 28.3624C60.5009 26.5407 59.0624 24.9896 57.3079 23.8482C55.5534 22.7068 53.5378 22.0108 51.4417 21.8226C49.3457 21.6345 47.2349 21.9601 45.2986 22.7702C43.3624 23.5803 41.6613 24.8496 40.3478 26.4643C39.0344 28.0789 38.1498 29.9884 37.7734 32.0214C37.3969 34.0544 37.5404 36.1474 38.191 38.1125C38.8415 40.0777 39.9788 41.8536 41.5008 43.2809L37.6282 47.9254L39.4248 54.9999L46.7307 46.2596C49.0434 46.9309 51.5045 46.9309 53.8171 46.2596L61.1231 54.9999L62.9197 47.9254L59.0471 43.2809C60.2924 42.1227 61.285 40.7282 61.9644 39.1819C62.6439 37.6356 62.996 35.9698 62.9995 34.2858ZM41.5607 34.2858C41.5369 32.5872 42.0282 30.92 42.9722 29.4963C43.9162 28.0726 45.2701 26.9567 46.8618 26.2904C48.4536 25.6242 50.2112 25.4377 51.9111 25.7547C53.6111 26.0718 55.1766 26.878 56.4086 28.0709C57.6406 29.2637 58.4833 30.7894 58.8298 32.4537C59.1762 34.1181 59.0105 35.846 58.354 37.4177C57.6974 38.9895 56.5795 40.334 55.1425 41.2803C53.7055 42.2266 52.0143 42.732 50.2839 42.7321C47.9913 42.7374 45.7895 41.8523 44.1591 40.27C42.5286 38.6876 41.6017 36.5365 41.5806 34.2858H41.5607Z" fill="black"/>
</svg>
