<svg width="102" height="112" viewBox="0 0 102 112" fill="none" xmlns="http://www.w3.org/2000/svg">
<path id="liquid" d="M51 0L44.625 5.71568C44.625 5.71568 33.745 15.582 22.78 28.3742C11.815 41.1665 0 56.4763 0 71.1738C0 82.0015 5.3732 92.3859 14.9376 100.042C24.5019 107.699 37.474 112 51 112C64.526 112 77.4981 107.699 87.0625 100.042C96.6268 92.3859 102 82.0015 102 71.1738C102 56.4763 90.185 41.1665 79.22 28.3742C68.255 15.582 57.375 5.71568 57.375 5.71568L51 0ZM51 21.2977C54.74 24.836 58.14 27.7618 65.28 36.0632C75.565 48.0389 85 63.2807 85 71.1738C85 86.2795 69.87 98.3913 51 98.3913C32.13 98.3913 17 86.2795 17 71.1738C17 63.2807 26.435 48.0389 36.72 36.0632C43.86 27.7618 47.26 24.836 51 21.2977Z" fill="black"/>
</svg>
