<svg width="53" height="51" viewBox="0 0 53 51" fill="none" xmlns="http://www.w3.org/2000/svg">
<g id="Frame 124">
<path id="Vector" d="M25.2783 48.5323C25.2783 47.8778 25.536 47.2501 25.9947 46.7873C26.4535 46.3245 27.0756 46.0645 27.7243 46.0645H47.2924C47.5086 46.0645 47.716 45.9779 47.8689 45.8236C48.0218 45.6693 48.1077 45.4601 48.1077 45.2419V5.75806C48.1077 5.5399 48.0218 5.33068 47.8689 5.17641C47.716 5.02215 47.5086 4.93548 47.2924 4.93548H27.7243C27.0756 4.93548 26.4535 4.67549 25.9947 4.2127C25.536 3.74991 25.2783 3.12223 25.2783 2.46774C25.2783 1.81326 25.536 1.18558 25.9947 0.722785C26.4535 0.259993 27.0756 0 27.7243 0H47.2924C50.4428 0 52.9997 2.57961 52.9997 5.75806V45.2419C52.9997 46.7691 52.3984 48.2337 51.3281 49.3135C50.2578 50.3933 48.8061 51 47.2924 51H27.7243C27.0756 51 26.4535 50.74 25.9947 50.2772C25.536 49.8144 25.2783 49.1867 25.2783 48.5323Z" fill="white"/>
<path id="Vector_2" d="M39.5033 29.1686C39.5033 30.0413 39.1597 30.8782 38.548 31.4952C37.9364 32.1123 37.1069 32.459 36.2419 32.459H20.4048C20.3298 33.6303 20.2352 34.7951 20.1244 35.9664L20.0265 36.97C19.9901 37.3482 19.8638 37.712 19.6583 38.0304C19.4528 38.3489 19.1741 38.6126 18.8461 38.7993C18.518 38.9859 18.1501 39.09 17.7736 39.1026C17.3972 39.1152 17.0233 39.0361 16.6836 38.8718C10.7218 35.9891 5.32476 32.0444 0.751991 27.2273L0.654151 27.1254C0.234372 26.6837 0 26.0954 0 25.4835C0 24.8716 0.234372 24.2833 0.654151 23.8416L0.751991 23.7396C5.32472 18.9225 10.7218 14.9778 16.6836 12.0952C17.0233 11.9309 17.3972 11.8517 17.7736 11.8643C18.1501 11.877 18.518 11.981 18.8461 12.1677C19.1741 12.3543 19.4528 12.6181 19.6583 12.9365C19.8638 13.255 19.9901 13.6187 20.0265 13.997L20.1244 15.0005C20.2352 16.1686 20.3298 17.3366 20.4048 18.508H36.2419C37.1069 18.508 37.9364 18.8547 38.548 19.4717C39.1597 20.0888 39.5033 20.9257 39.5033 21.7983V29.1686Z" fill="white"/>
</g>
</svg>
