<svg width="169" height="230" viewBox="0 0 169 230" fill="none" xmlns="http://www.w3.org/2000/svg">
<path d="M94.6572 146.163C100.124 146.163 104.557 141.731 104.557 136.264C104.557 130.796 100.124 126.364 94.6572 126.364C89.1899 126.364 84.7578 130.796 84.7578 136.264C84.7578 141.731 89.1899 146.163 94.6572 146.163Z" fill="#8B0000"/>
<path d="M141.861 146.163C147.329 146.163 151.761 141.731 151.761 136.264C151.761 130.796 147.329 126.364 141.861 126.364C136.394 126.364 131.962 130.796 131.962 136.264C131.962 141.731 136.394 146.163 141.861 146.163Z" fill="#8B0000"/>
<path fill-rule="evenodd" clip-rule="evenodd" d="M168.143 137.007C168.143 95.7769 134.725 62.3591 93.5033 62.3591C93.4145 62.3591 93.3257 62.3591 93.2355 62.3591C72.3293 62.3591 52.2801 70.6811 37.5087 85.4695C22.736 100.258 14.4534 120.324 14.4835 141.226C14.524 168.177 14.5671 196.343 14.5958 215.612C14.6037 220.563 17.1407 225.149 21.3199 227.775C25.499 230.414 30.7351 230.727 35.1938 228.598C44.0524 224.378 52.7909 215.194 61.6613 212.49C74.6782 208.506 91.1336 209.707 103.261 208.767C141.794 205.697 168.1 175.663 168.1 137.007C168.143 137.007 168.143 137.007 168.143 137.007ZM165.142 136.092L165.143 136.275C165.143 139.515 164.528 142.598 163.394 145.42L163.373 145.472C159.832 154.421 151.255 160.822 141.15 161.188V161.214H141.148C136.814 161.214 132.574 159.947 128.939 157.595C125.028 154.996 120.331 153.493 115.286 153.493C110.241 153.493 105.544 154.996 101.619 157.569C97.9882 159.934 93.7516 161.188 89.4222 161.188C89.4222 161.214 89.4222 161.214 89.4222 161.214V161.188C79.2963 160.822 70.7067 154.395 67.1782 145.42L67.1521 145.354C66.0338 142.546 65.4289 139.489 65.4289 136.275C65.4289 134.302 65.6602 132.369 66.1253 130.527L66.141 130.462C68.6701 119.788 78.084 111.793 89.4222 111.375V111.349C89.4222 111.349 89.4222 111.349 89.4222 111.375C93.7516 111.375 97.9882 112.629 101.619 114.994C105.544 117.567 110.241 119.07 115.286 119.07C120.331 119.07 125.028 117.567 128.939 114.968C132.574 112.603 136.814 111.349 141.148 111.349H141.15V111.375C152.511 111.793 161.939 119.828 164.446 130.527L164.458 130.566C164.9 132.343 165.129 134.198 165.142 136.092Z" fill="#8B0000"/>
<path fill-rule="evenodd" clip-rule="evenodd" d="M41.6903 61.4847C34.0184 61.667 26.5493 57.5235 22.8588 50.2369C17.7392 40.1285 21.7908 27.7702 31.898 22.6512C42.0052 17.5322 54.3653 21.5783 59.4849 31.6868C63.1754 38.9733 62.0962 47.4464 57.4097 53.5232L54.9389 48.6447C57.4071 44.2272 57.7003 38.6892 55.2421 33.8356C51.3103 26.0725 41.8107 22.9573 34.045 26.8904C26.2794 30.8235 23.1698 40.3249 27.1016 48.0881C29.5598 52.9416 34.1966 55.9827 39.2195 56.6062L41.6903 61.4847Z" fill="#8B0000"/>
<path fill-rule="evenodd" clip-rule="evenodd" d="M40.0294 67.9557L42.1779 72.1977C30.6685 72.4769 19.4609 66.2623 13.9184 55.3188C6.23901 40.1564 12.3153 21.6005 27.4823 13.9188C42.6505 6.23651 61.2036 12.3183 68.8829 27.4807C74.4255 38.4241 72.8038 51.1364 65.7699 60.249L63.6214 56.0069C68.7483 48.241 69.6828 38.0147 65.185 29.134C58.515 15.9646 42.3989 10.6839 29.2236 17.3568C16.0483 24.0298 10.7704 40.1459 17.4404 53.3154C21.9383 62.1961 30.7352 67.4936 40.0294 67.9557Z" fill="#8B0000"/>
<path fill-rule="evenodd" clip-rule="evenodd" d="M40.6528 49.9654C37.0677 49.936 33.6256 47.9598 31.8961 44.5451C29.4288 39.6735 31.3786 33.707 36.2524 31.2385C41.1275 28.7694 47.0911 30.728 49.5584 35.5996C51.2879 39.0143 50.8431 42.9591 48.7467 45.866L61.6854 71.4127L53.5915 75.512L40.6528 49.9654Z" fill="#8B0000"/>
</svg>
