<svg width="20" height="18" viewBox="0 0 20 18" fill="none" xmlns="http://www.w3.org/2000/svg">
<path fill-rule="evenodd" clip-rule="evenodd" d="M1.875 1.92857V12.2143H18.125V1.92857H1.875ZM1.25 14.1429H6.25V16.0714H4.6875C4.43886 16.0714 4.2004 16.173 4.02459 16.3539C3.84877 16.5347 3.75 16.78 3.75 17.0357C3.75 17.2915 3.84877 17.5367 4.02459 17.7176C4.2004 17.8984 4.43886 18 4.6875 18H15.3125C15.5611 18 15.7996 17.8984 15.9754 17.7176C16.1512 17.5367 16.25 17.2915 16.25 17.0357C16.25 16.78 16.1512 16.5347 15.9754 16.3539C15.7996 16.173 15.5611 16.0714 15.3125 16.0714H13.75V14.1429H18.75C19.0815 14.1429 19.3995 14.0074 19.6339 13.7663C19.8683 13.5252 20 13.1981 20 12.8571V1.28571C20 0.944722 19.8683 0.617695 19.6339 0.376577C19.3995 0.135459 19.0815 0 18.75 0H1.25C0.918479 0 0.600537 0.135459 0.366117 0.376577C0.131696 0.617695 0 0.944722 0 1.28571L0 12.8571C0 13.1981 0.131696 13.5252 0.366117 13.7663C0.600537 14.0074 0.918479 14.1429 1.25 14.1429ZM8.125 16.0714V14.1429H11.875V16.0714H8.125ZM14.375 6.10714C14.375 5.8514 14.2762 5.60613 14.1004 5.42529C13.9246 5.24445 13.6861 5.14286 13.4375 5.14286C13.1889 5.14286 12.9504 5.24445 12.7746 5.42529C12.5988 5.60613 12.5 5.8514 12.5 6.10714V9.32143C12.5 9.57717 12.5988 9.82244 12.7746 10.0033C12.9504 10.1841 13.1889 10.2857 13.4375 10.2857C13.6861 10.2857 13.9246 10.1841 14.1004 10.0033C14.2762 9.82244 14.375 9.57717 14.375 9.32143V6.10714ZM9.6875 3.85714C9.93614 3.85714 10.1746 3.95874 10.3504 4.13958C10.5262 4.32041 10.625 4.56568 10.625 4.82143V9.32143C10.625 9.57717 10.5262 9.82244 10.3504 10.0033C10.1746 10.1841 9.93614 10.2857 9.6875 10.2857C9.43886 10.2857 9.2004 10.1841 9.02459 10.0033C8.84877 9.82244 8.75 9.57717 8.75 9.32143V4.82143C8.75 4.56568 8.84877 4.32041 9.02459 4.13958C9.2004 3.95874 9.43886 3.85714 9.6875 3.85714ZM6.875 7.39286C6.875 7.13711 6.77623 6.89184 6.60041 6.711C6.4246 6.53017 6.18614 6.42857 5.9375 6.42857C5.68886 6.42857 5.4504 6.53017 5.27459 6.711C5.09877 6.89184 5 7.13711 5 7.39286V9.32143C5 9.57717 5.09877 9.82244 5.27459 10.0033C5.4504 10.1841 5.68886 10.2857 5.9375 10.2857C6.18614 10.2857 6.4246 10.1841 6.60041 10.0033C6.77623 9.82244 6.875 9.57717 6.875 9.32143V7.39286Z" fill="white"/>
</svg>
