<svg width="56" height="51" viewBox="0 0 56 51" fill="none" xmlns="http://www.w3.org/2000/svg">
<path fill-rule="evenodd" clip-rule="evenodd" d="M5.25 5.46429V34.6071H50.75V5.46429H5.25ZM3.5 40.0714H17.5V45.5357H13.125C12.4288 45.5357 11.7611 45.8236 11.2688 46.3359C10.7766 46.8483 10.5 47.5432 10.5 48.2679C10.5 48.9925 10.7766 49.6874 11.2688 50.1998C11.7611 50.7121 12.4288 51 13.125 51H42.875C43.5712 51 44.2389 50.7121 44.7312 50.1998C45.2234 49.6874 45.5 48.9925 45.5 48.2679C45.5 47.5432 45.2234 46.8483 44.7312 46.3359C44.2389 45.8236 43.5712 45.5357 42.875 45.5357H38.5V40.0714H52.5C53.4283 40.0714 54.3185 39.6876 54.9749 39.0045C55.6313 38.3213 56 37.3947 56 36.4286V3.64286C56 2.67671 55.6313 1.75014 54.9749 1.06697C54.3185 0.3838 53.4283 0 52.5 0H3.5C2.57174 0 1.6815 0.3838 1.02513 1.06697C0.368749 1.75014 0 2.67671 0 3.64286L0 36.4286C0 37.3947 0.368749 38.3213 1.02513 39.0045C1.6815 39.6876 2.57174 40.0714 3.5 40.0714ZM22.75 45.5357V40.0714H33.25V45.5357H22.75ZM40.25 17.3036C40.25 16.579 39.9734 15.884 39.4812 15.3717C38.9889 14.8593 38.3212 14.5714 37.625 14.5714C36.9288 14.5714 36.2611 14.8593 35.7688 15.3717C35.2766 15.884 35 16.579 35 17.3036V26.4107C35 27.1353 35.2766 27.8303 35.7688 28.3426C36.2611 28.855 36.9288 29.1429 37.625 29.1429C38.3212 29.1429 38.9889 28.855 39.4812 28.3426C39.9734 27.8303 40.25 27.1353 40.25 26.4107V17.3036ZM27.125 10.9286C27.8212 10.9286 28.4889 11.2164 28.9812 11.7288C29.4734 12.2412 29.75 12.9361 29.75 13.6607V26.4107C29.75 27.1353 29.4734 27.8303 28.9812 28.3426C28.4889 28.855 27.8212 29.1429 27.125 29.1429C26.4288 29.1429 25.7611 28.855 25.2688 28.3426C24.7766 27.8303 24.5 27.1353 24.5 26.4107V13.6607C24.5 12.9361 24.7766 12.2412 25.2688 11.7288C25.7611 11.2164 26.4288 10.9286 27.125 10.9286ZM19.25 20.9464C19.25 20.2218 18.9734 19.5269 18.4812 19.0145C17.9889 18.5021 17.3212 18.2143 16.625 18.2143C15.9288 18.2143 15.2611 18.5021 14.7688 19.0145C14.2766 19.5269 14 20.2218 14 20.9464V26.4107C14 27.1353 14.2766 27.8303 14.7688 28.3426C15.2611 28.855 15.9288 29.1429 16.625 29.1429C17.3212 29.1429 17.9889 28.855 18.4812 28.3426C18.9734 27.8303 19.25 27.1353 19.25 26.4107V20.9464Z" fill="white"/>
</svg>
