<svg width="33" height="33" viewBox="0 0 33 33" fill="none" xmlns="http://www.w3.org/2000/svg">
<path d="M14.1333 0V19.0842H18.8666V0H14.1333ZM4.83197 4.83197C1.84605 7.81789 0 11.9436 0 16.5C0 25.6127 7.3873 33 16.5 33C25.6127 33 33 25.6127 33 16.5C33 11.9436 31.1539 7.81789 28.168 4.83197L24.8447 8.15535C26.9803 10.2909 28.301 13.2415 28.301 16.5C28.301 23.017 23.0169 28.301 16.5 28.301C9.98302 28.301 4.69903 23.017 4.69903 16.5C4.69903 13.2415 6.01972 10.2909 8.15535 8.15535L4.83197 4.83197Z" fill="black"/>
</svg>
