<svg width="103" height="70" viewBox="0 0 103 70" fill="none" xmlns="http://www.w3.org/2000/svg">
<path d="M51.5 21C47.7749 21 44.2024 22.475 41.5684 25.1005C38.9343 27.726 37.4545 31.287 37.4545 35C37.4545 38.713 38.9343 42.274 41.5684 44.8995C44.2024 47.525 47.7749 49 51.5 49C55.2251 49 58.7976 47.525 61.4316 44.8995C64.0657 42.274 65.5455 38.713 65.5455 35C65.5455 31.287 64.0657 27.726 61.4316 25.1005C58.7976 22.475 55.2251 21 51.5 21ZM51.5 58.3333C45.2915 58.3333 39.3373 55.875 34.9473 51.4992C30.5572 47.1233 28.0909 41.1884 28.0909 35C28.0909 28.8116 30.5572 22.8767 34.9473 18.5008C39.3373 14.125 45.2915 11.6667 51.5 11.6667C57.7085 11.6667 63.6627 14.125 68.0527 18.5008C72.4428 22.8767 74.9091 28.8116 74.9091 35C74.9091 41.1884 72.4428 47.1233 68.0527 51.4992C63.6627 55.875 57.7085 58.3333 51.5 58.3333ZM51.5 0C28.0909 0 8.09955 14.5133 0 35C8.09955 55.4867 28.0909 70 51.5 70C74.9091 70 94.9005 55.4867 103 35C94.9005 14.5133 74.9091 0 51.5 0Z" fill="#333333"/>
</svg>
