<svg width="98" height="99" viewBox="0 0 98 99" fill="none" xmlns="http://www.w3.org/2000/svg">
<path id="pen" d="M93.3578 22.2307C91.5655 24.1004 89.826 25.9151 89.7733 27.7299C89.6151 29.4897 91.4074 31.3044 93.0943 33.0092C95.6246 35.7588 98.1022 38.2334 97.9967 40.9281C97.8913 43.6227 95.2029 46.4273 92.5144 49.1769L70.7432 71.9438L63.2577 64.1348L85.6615 40.8181L80.6009 35.5388L73.1154 43.2927L53.3473 22.6706L73.5898 1.60853C75.6457 -0.536175 79.0722 -0.536175 81.0226 1.60853L93.3578 14.4767C95.4137 16.5115 95.4137 20.086 93.3578 22.2307ZM0 78.3779L50.3953 25.7502L70.1634 46.3723L19.768 99H0V78.3779Z" fill="black"/>
</svg>
