<svg width="15" height="16" viewBox="0 0 15 16" fill="none" xmlns="http://www.w3.org/2000/svg">
<path d="M12.8859 4.85701L10.6605 2.62998C9.13911 1.10625 8.37878 0.345892 7.56142 0.526036C6.74405 0.706181 6.37477 1.71724 5.63396 3.73862L5.13258 5.10696C4.93518 5.6459 4.8361 5.91536 4.65822 6.12403C4.5787 6.21785 4.48795 6.30155 4.38801 6.37323C4.16584 6.53311 3.88963 6.60892 3.33722 6.76129C2.09127 7.10507 1.46755 7.27696 1.23262 7.68453C1.13107 7.86095 1.07822 8.06119 1.07951 8.26475C1.08251 8.73538 1.53961 9.1925 2.45305 10.1075L3.51585 11.1703L0.156307 14.533C0.0539345 14.6416 -0.00211372 14.7857 6.09994e-05 14.9349C0.00223571 15.0841 0.0624621 15.2265 0.167955 15.332C0.273448 15.4375 0.415902 15.4978 0.565075 15.4999C0.714249 15.5021 0.858398 15.4461 0.966921 15.3437L4.32571 11.981L5.42605 13.0829C6.34624 14.0031 6.80634 14.464 7.27995 14.464C7.47885 14.464 7.67475 14.4129 7.84813 14.3139C8.25944 14.0789 8.43207 13.4514 8.77809 12.1957C8.9297 11.644 9.00551 11.3685 9.16463 11.1456C9.23468 11.0485 9.31524 10.9604 9.40631 10.8814C9.61272 10.7027 9.88067 10.6021 10.4158 10.401L11.7999 9.8808C13.7994 9.1302 14.7991 8.75414 14.9748 7.93974C15.1512 7.12458 14.3968 6.36873 12.8859 4.85701Z" fill="black"/>
</svg>
