<svg width="53" height="53" viewBox="0 0 53 53" fill="none" xmlns="http://www.w3.org/2000/svg">
<path d="M46.375 19.875H33.125V6.625C33.125 4.86794 32.427 3.18285 31.1846 1.94042C29.9422 0.697989 28.2571 0 26.5 0C24.7429 0 23.0578 0.697989 21.8154 1.94042C20.573 3.18285 19.875 4.86794 19.875 6.625L20.1102 19.875H6.625C4.86794 19.875 3.18285 20.573 1.94042 21.8154C0.697989 23.0578 0 24.7429 0 26.5C0 28.2571 0.697989 29.9422 1.94042 31.1846C3.18285 32.427 4.86794 33.125 6.625 33.125L20.1102 32.8898L19.875 46.375C19.875 48.1321 20.573 49.8172 21.8154 51.0596C23.0578 52.302 24.7429 53 26.5 53C28.2571 53 29.9422 52.302 31.1846 51.0596C32.427 49.8172 33.125 48.1321 33.125 46.375V32.8898L46.375 33.125C48.1321 33.125 49.8172 32.427 51.0596 31.1846C52.302 29.9422 53 28.2571 53 26.5C53 24.7429 52.302 23.0578 51.0596 21.8154C49.8172 20.573 48.1321 19.875 46.375 19.875Z" fill="white"/>
</svg>
