<svg width="102" height="114" viewBox="0 0 102 114" fill="none" xmlns="http://www.w3.org/2000/svg">
<path id="power" fill-rule="evenodd" clip-rule="evenodd" d="M40.4585 0.000146333H78.482C87.6084 0.000146333 93.8615 9.52582 87.6606 16.7005L69.2473 37.9845H96.3356C98.6551 37.9845 100.74 39.2781 101.598 41.2493C102.456 43.2206 101.913 45.4711 100.229 46.9294L25.9766 111.199C25.9195 111.248 25.8613 111.296 25.802 111.344C16.5819 118.684 2.48149 109.571 7.56345 99.1121L22.7025 64.5337H11.6501C3.16036 64.5337 -3.13156 56.1945 1.65445 48.9232L30.4761 5.05488C31.5298 3.49792 33.0042 2.21538 34.7565 1.33013C36.5019 0.448428 38.4649 -0.00940151 40.4585 0.000146333ZM40.3998 10.3627C40.3415 10.3623 40.2841 10.3756 40.2331 10.4014C40.1862 10.4251 40.1462 10.4585 40.1162 10.4989L11.4434 54.1408C11.4553 54.1455 11.4696 54.1502 11.487 54.1544C11.5176 54.1619 11.57 54.171 11.6501 54.171H31.0726C32.9526 54.171 34.71 55.0242 35.7636 56.4485C36.8173 57.8727 37.0297 59.6823 36.3308 61.2787L18.0354 103.066C18.0014 103.144 17.9654 103.221 17.9273 103.297C17.8988 103.354 17.8845 103.394 17.8774 103.419C17.8951 103.444 17.9328 103.488 18.0048 103.537C18.0604 103.575 18.1155 103.6 18.16 103.613C18.1848 103.621 18.2023 103.624 18.2123 103.626C18.2187 103.623 18.2287 103.618 18.2422 103.611C18.258 103.602 18.2812 103.588 18.311 103.567L82.1083 48.3472H57.5414C55.3695 48.3472 53.3888 47.2111 52.4428 45.4227C51.4967 43.6342 51.752 41.5085 53.0998 39.9505L78.6774 10.3854C78.6736 10.3842 78.6696 10.3831 78.6654 10.382C78.6355 10.3743 78.5773 10.3628 78.482 10.3628L40.3998 10.3627Z" fill="black"/>
</svg>
