<svg width="296" height="270" viewBox="0 0 296 270" fill="none" xmlns="http://www.w3.org/2000/svg">
<path d="M0 270V180H22.2C17.3136 165.513 14.8135 150.31 14.8 135C14.8 99.1958 28.8335 64.858 53.8134 39.5406C78.7932 14.2232 112.673 0 148 0H296V90H273.8C278.536 104.1 281.2 119.25 281.2 135C281.2 170.804 267.166 205.142 242.187 230.459C217.207 255.777 183.327 270 148 270H0ZM44.4 135C44.4 154.2 49.432 172.05 58.312 187.5L109.52 157.5C105.82 150.9 103.6 143.25 103.6 135C103.6 125.25 106.708 116.25 111.888 108.9L63.64 73.95C51.8 91.2 44.4 112.5 44.4 135ZM148 240C186.332 240 219.78 218.85 237.688 187.5L186.48 157.5C178.784 171 164.428 180 148 180H143.708L138.084 239.55L148 240ZM148 90C165.908 90 181.448 100.8 188.404 116.4L242.276 91.5C234.055 73.1505 220.791 57.591 204.071 46.6839C187.351 35.7768 167.884 29.9844 148 30V90ZM148 120C139.86 120 133.2 126.75 133.2 135C133.2 143.25 139.86 150 148 150C156.14 150 162.8 143.25 162.8 135C162.8 126.75 156.14 120 148 120Z" fill="white"/>
</svg>
