<svg width="347" height="270" viewBox="0 0 347 270" fill="none" xmlns="http://www.w3.org/2000/svg">
<path d="M154.222 0C143.559 0 134.944 8.6183 134.944 19.2857V80.6987C134.944 84.0737 132.234 86.7857 128.86 86.7857C126.691 86.7857 124.643 85.6406 123.559 83.7121L94.6418 33.1473C50.0017 55.1451 19.2778 101.129 19.2778 154.286V192.857H327.722V152.839C327.18 100.286 296.577 54.9643 252.358 33.1473L223.441 83.7121C222.357 85.6406 220.309 86.7857 218.14 86.7857C214.767 86.7857 212.056 84.0737 212.056 80.6987V19.2857C212.056 8.6183 203.441 0 192.778 0H154.222ZM10.0003 212.143C4.45799 212.143 0 216.603 0 222.147C0 224.98 1.20486 227.692 3.4941 229.319C16.5668 238.902 67.3517 270 173.5 270C279.648 270 330.433 238.902 343.506 229.319C345.795 227.632 347 224.98 347 222.147C347 216.603 342.542 212.143 337 212.143H10.0003Z" fill="white"/>
</svg>
