<svg width="33" height="33" viewBox="0 0 33 33" fill="none" xmlns="http://www.w3.org/2000/svg">
<path d="M33 7.33333V29.3333C33 30.3417 32.6413 31.2052 31.9238 31.9238C31.2064 32.6425 30.3429 33.0012 29.3333 33H3.66667C2.65833 33 1.79544 32.6413 1.078 31.9238C0.360556 31.2064 0.00122222 30.3429 0 29.3333V3.66667C0 2.65833 0.359333 1.79544 1.078 1.078C1.79667 0.360556 2.65956 0.00122222 3.66667 0H25.6667L33 7.33333ZM16.5 27.5C18.0278 27.5 19.3264 26.9653 20.3958 25.8958C21.4653 24.8264 22 23.5278 22 22C22 20.4722 21.4653 19.1736 20.3958 18.1042C19.3264 17.0347 18.0278 16.5 16.5 16.5C14.9722 16.5 13.6736 17.0347 12.6042 18.1042C11.5347 19.1736 11 20.4722 11 22C11 23.5278 11.5347 24.8264 12.6042 25.8958C13.6736 26.9653 14.9722 27.5 16.5 27.5ZM5.5 12.8333H22V5.5H5.5V12.8333Z" fill="black"/>
</svg>
