<svg width="53" height="53" viewBox="0 0 53 53" fill="none" xmlns="http://www.w3.org/2000/svg">
<path d="M48.8778 53L30.3278 34.45C28.8556 35.6278 27.1625 36.5602 25.2486 37.2472C23.3347 37.9343 21.2981 38.2778 19.1389 38.2778C13.7898 38.2778 9.26322 36.4247 5.55911 32.7187C1.855 29.0126 0.00196452 24.486 1.55791e-06 19.1389C-0.00196141 13.7918 1.85108 9.26519 5.55911 5.55911C9.26715 1.85304 13.7937 0 19.1389 0C24.484 0 29.0116 1.85304 32.7216 5.55911C36.4316 9.26519 38.2837 13.7918 38.2778 19.1389C38.2778 21.2981 37.9343 23.3347 37.2472 25.2486C36.5602 27.1625 35.6278 28.8556 34.45 30.3278L53 48.8778L48.8778 53ZM19.1389 32.3889C22.8194 32.3889 25.9484 31.1012 28.5258 28.5258C31.1031 25.9504 32.3909 22.8214 32.3889 19.1389C32.3869 15.4564 31.0992 12.3284 28.5258 9.75494C25.9523 7.1815 22.8234 5.89281 19.1389 5.88889C15.4544 5.88496 12.3264 7.17365 9.75495 9.75494C7.18346 12.3362 5.89478 15.4642 5.88889 19.1389C5.883 22.8136 7.17169 25.9425 9.75495 28.5258C12.3382 31.109 15.4662 32.3967 19.1389 32.3889Z" fill="black"/>
</svg>
