<svg width="270" height="270" viewBox="0 0 270 270" fill="none" xmlns="http://www.w3.org/2000/svg">
<path d="M224.329 73.7344L59.4367 1.14399C56.1375 -0.30257 52.3989 -0.38026 49.0424 0.927984C47.3836 1.58516 45.8713 2.56405 44.5924 3.80826C43.3135 5.05247 42.2934 6.53742 41.5909 8.17758L1.09343 102.679C-0.316787 105.969 -0.362394 109.685 0.966645 113.009C2.29568 116.333 4.89053 118.994 8.18048 120.405L102.094 160.649L85.3551 202.499H26.9983V161.999H0V270H26.9983V229.499H85.3551C96.4649 229.499 106.306 222.83 110.41 212.516L126.905 171.287L173.059 191.064C176.334 192.472 180.034 192.527 183.349 191.217C186.665 189.907 189.328 187.338 190.756 184.071L231.254 91.5007C232.687 88.2258 232.762 84.5163 231.464 81.1857C230.166 77.8552 227.6 75.1755 224.329 73.7344ZM242.04 194.021L216.958 184.004L243.93 116.503L269.011 126.507L242.04 194.021Z" fill="white"/>
</svg>
