<svg width="241" height="270" viewBox="0 0 241 270" fill="none" xmlns="http://www.w3.org/2000/svg">
<path d="M240.228 180V240C240.231 247.569 237.369 254.858 232.218 260.408C227.067 265.958 220.006 269.357 212.452 269.925L210.2 270H30.0285C22.4527 270.002 15.1559 267.144 9.6009 261.998C4.0459 256.851 0.643261 249.797 0.075073 242.25L0 240V180H240.228ZM150.143 210C146.161 210 142.342 211.58 139.526 214.393C136.71 217.206 135.128 221.022 135.128 225C135.128 228.978 136.71 232.794 139.526 235.607C142.342 238.42 146.161 240 150.143 240C154.125 240 157.944 238.42 160.759 235.607C163.575 232.794 165.157 228.978 165.157 225C165.157 221.022 163.575 217.206 160.759 214.393C157.944 211.58 154.125 210 150.143 210ZM195.185 210C191.203 210 187.384 211.58 184.569 214.393C181.753 217.206 180.171 221.022 180.171 225C180.171 228.978 181.753 232.794 184.569 235.607C187.384 238.42 191.203 240 195.185 240C199.167 240 202.986 238.42 205.802 235.607C208.618 232.794 210.2 228.978 210.2 225C210.2 221.022 208.618 217.206 205.802 214.393C202.986 211.58 199.167 210 195.185 210ZM240.228 90V150H0V90H240.228ZM210.2 0C218.164 0 225.802 3.1607 231.433 8.7868C237.064 14.4129 240.228 22.0435 240.228 30V60H0V30C0 22.0435 3.16371 14.4129 8.79515 8.7868C14.4266 3.1607 22.0645 0 30.0285 0H210.2Z" fill="white"/>
</svg>
