<svg width="51" height="51" viewBox="0 0 51 51" fill="none" xmlns="http://www.w3.org/2000/svg">
<path d="M46.833 27.1828C46.4169 26.7175 46.1874 26.1193 46.1874 25.5C46.1874 24.8807 46.4169 24.2825 46.833 23.8172L50.1554 20.1457C50.5215 19.7446 50.7488 19.2398 50.8048 18.7039C50.8607 18.168 50.7424 17.6284 50.4668 17.1626L45.2757 8.34083C45.0029 7.87558 44.5876 7.50678 44.0889 7.28703C43.5902 7.06727 43.0336 7.00777 42.4984 7.117L37.6188 8.08587C36.9979 8.21189 36.3515 8.11032 35.8016 7.80031C35.2517 7.4903 34.8363 6.9933 34.6339 6.4031L33.0506 1.73723C32.8764 1.23082 32.5447 0.790966 32.1022 0.47985C31.6597 0.168733 31.1289 0.00208765 30.5848 0.00346742H20.2025C19.6365 -0.0255528 19.0764 0.128213 18.6077 0.441279C18.139 0.754345 17.7875 1.2095 17.6069 1.73723L16.1534 6.4031C15.951 6.9933 15.5356 7.4903 14.9857 7.80031C14.4358 8.11032 13.7894 8.21189 13.1685 8.08587L8.15905 7.117C7.65175 7.04658 7.13457 7.12522 6.67269 7.343C6.2108 7.56078 5.82485 7.90797 5.56348 8.34083L0.372337 17.1626C0.0898353 17.6232 -0.0371866 18.1598 0.00943112 18.6955C0.0560488 19.2313 0.273919 19.7389 0.631894 20.1457L3.92827 23.8172C4.34439 24.2825 4.57388 24.8807 4.57388 25.5C4.57388 26.1193 4.34439 26.7175 3.92827 27.1828L0.631894 30.8543C0.273919 31.2611 0.0560488 31.7687 0.00943112 32.3045C-0.0371866 32.8402 0.0898353 33.3768 0.372337 33.8374L5.56348 42.6592C5.83627 43.1244 6.25161 43.4932 6.75031 43.713C7.249 43.9327 7.80559 43.9922 8.34074 43.883L13.2204 42.9141C13.8413 42.7881 14.4877 42.8897 15.0376 43.1997C15.5875 43.5097 16.0029 44.0067 16.2053 44.5969L17.7886 49.2628C17.9692 49.7905 18.3207 50.2457 18.7894 50.5587C19.2581 50.8718 19.8182 51.0256 20.3842 50.9965H30.7665C31.3106 50.9979 31.8414 50.8313 32.2839 50.5202C32.7264 50.209 33.0581 49.7692 33.2323 49.2628L34.8156 44.5969C35.018 44.0067 35.4334 43.5097 35.9833 43.1997C36.5332 42.8897 37.1796 42.7881 37.8005 42.9141L42.6801 43.883C43.2153 43.9922 43.7719 43.9327 44.2706 43.713C44.7693 43.4932 45.1846 43.1244 45.4574 42.6592L50.6485 33.8374C50.9241 33.3716 51.0424 32.832 50.9865 32.2961C50.9305 31.7602 50.7032 31.2554 50.3371 30.8543L46.833 27.1828ZM42.9656 30.5993L45.0421 32.894L41.7198 38.5542L38.657 37.9423C36.7876 37.5669 34.843 37.8789 33.1923 38.8189C31.5415 39.7589 30.2996 41.2615 29.7023 43.0416L28.716 45.8972H22.0713L21.1369 42.9906C20.5395 41.2106 19.2976 39.7079 17.6469 38.7679C15.9962 37.8279 14.0516 37.516 12.1822 37.8913L9.11941 38.5032L5.74517 32.8685L7.82162 30.5738C9.09853 29.1714 9.80446 27.356 9.80446 25.4745C9.80446 23.593 9.09853 21.7776 7.82162 20.3752L5.74517 18.0805L9.0675 12.4713L12.1303 13.0832C13.9997 13.4586 15.9443 13.1466 17.595 12.2066C19.2457 11.2666 20.4876 9.76395 21.085 7.98388L22.0713 5.10277H28.716L29.7023 8.00938C30.2996 9.78944 31.5415 11.2921 33.1923 12.2321C34.843 13.1721 36.7876 13.4841 38.657 13.1087L41.7198 12.4968L45.0421 18.157L42.9656 20.4517C41.7031 21.8508 41.0059 23.6558 41.0059 25.5255C41.0059 27.3952 41.7031 29.2002 42.9656 30.5993ZM25.3936 15.3014C23.3402 15.3014 21.3329 15.8995 19.6255 17.0202C17.9182 18.1408 16.5875 19.7336 15.8017 21.5972C15.0158 23.4607 14.8102 25.5113 15.2108 27.4897C15.6114 29.468 16.6003 31.2852 18.0523 32.7115C19.5042 34.1378 21.3542 35.1091 23.3682 35.5027C25.3821 35.8962 27.4696 35.6942 29.3668 34.9223C31.2639 34.1504 32.8854 32.8432 34.0262 31.166C35.167 29.4889 35.7759 27.5171 35.7759 25.5C35.7759 22.7952 34.6821 20.2011 32.735 18.2885C30.788 16.3759 28.1472 15.3014 25.3936 15.3014ZM25.3936 30.5993C24.3669 30.5993 23.3633 30.3002 22.5096 29.7399C21.6559 29.1796 20.9905 28.3832 20.5976 27.4514C20.2047 26.5196 20.1019 25.4943 20.3022 24.5052C20.5025 23.516 20.9969 22.6074 21.7229 21.8942C22.4489 21.1811 23.3739 20.6954 24.3809 20.4987C25.3879 20.3019 26.4316 20.4029 27.3802 20.7889C28.3288 21.1748 29.1395 21.8284 29.7099 22.667C30.2803 23.5056 30.5848 24.4915 30.5848 25.5C30.5848 26.8524 30.0379 28.1494 29.0643 29.1058C28.0908 30.0621 26.7704 30.5993 25.3936 30.5993Z" fill="white"/>
</svg>
