<svg width="102" height="116" viewBox="0 0 102 116" fill="none" xmlns="http://www.w3.org/2000/svg">
<path id="snow" fill-rule="evenodd" clip-rule="evenodd" d="M51.059 0C52.5943 0 54.0667 0.611069 55.1524 1.69878C56.238 2.78649 56.8479 4.26174 56.8479 5.8V11.3796L60.6338 9.3728C61.9911 8.65367 63.5778 8.50417 65.0451 8.9572C66.5123 9.41023 67.7398 10.4287 68.4576 11.7885C69.1753 13.1483 69.3245 14.7381 68.8724 16.2082C68.4202 17.6782 67.4037 18.9081 66.0465 19.6272L56.8479 24.4992V35.5308C60.987 36.598 64.6745 38.7788 67.5806 41.7426L77.1207 36.2268L76.7328 25.81C76.6753 24.2725 77.2296 22.7751 78.274 21.6471C79.3184 20.5192 80.7672 19.8531 82.3018 19.7954C83.8363 19.7377 85.3309 20.2932 86.4567 21.3395C87.5825 22.3859 88.2473 23.8375 88.3049 25.375L88.4612 29.667L93.2834 26.8772C93.942 26.4904 94.6705 26.2379 95.4269 26.1342C96.1833 26.0306 96.9527 26.0779 97.6907 26.2734C98.4288 26.4689 99.121 26.8088 99.7275 27.2734C100.334 27.7381 100.843 28.3183 101.224 28.9807C101.606 29.6431 101.853 30.3747 101.952 31.1332C102.05 31.8917 101.998 32.6622 101.798 33.4004C101.598 34.1386 101.254 34.8298 100.786 35.4344C100.318 36.0389 99.736 36.5447 99.0723 36.9228L94.2501 39.7068L97.8798 41.992C98.5237 42.3972 99.0816 42.9255 99.5217 43.5468C99.9618 44.168 100.276 44.87 100.445 45.6127C100.614 46.3554 100.636 47.1243 100.509 47.8754C100.381 48.6264 100.108 49.3451 99.7033 49.9902C99.2989 50.6353 98.7716 51.1943 98.1515 51.6353C97.5314 52.0763 96.8308 52.3905 96.0895 52.5602C95.3482 52.7298 94.5808 52.7515 93.8312 52.6241C93.0815 52.4966 92.3643 52.2224 91.7204 51.8172L82.9096 46.2724L73.3753 51.7824C74.5033 55.8485 74.5033 60.1457 73.3753 64.2118L82.9096 69.7276L91.7204 64.1828C93.0208 63.3644 94.5924 63.0972 96.0895 63.4398C97.5866 63.7824 98.8865 64.7069 99.7033 66.0098C100.52 67.3127 100.787 68.8873 100.445 70.3873C100.103 71.8872 99.1802 73.1897 97.8798 74.008L94.2559 76.2874L99.0723 79.0772C99.736 79.4553 100.318 79.9611 100.786 80.5656C101.254 81.1702 101.598 81.8614 101.798 82.5996C101.998 83.3378 102.05 84.1083 101.952 84.8668C101.853 85.6254 101.606 86.3569 101.224 87.0193C100.843 87.6817 100.334 88.2619 99.7275 88.7266C99.121 89.1912 98.4288 89.5311 97.6907 89.7266C96.9527 89.9221 96.1833 89.9694 95.4269 89.8658C94.6705 89.7622 93.942 89.5096 93.2834 89.1228L88.467 86.3388L88.3049 90.625C88.2473 92.1625 87.5825 93.6141 86.4567 94.6605C85.3309 95.7068 83.8363 96.2623 82.3018 96.2046C80.7672 96.1469 79.3184 95.4808 78.274 94.3529C77.2296 93.2249 76.6753 91.7275 76.7328 90.19L77.1207 79.7732L67.5806 74.2574C64.6745 77.2154 60.9812 79.402 56.8479 80.4692V91.5008L66.0465 96.3728C67.4037 97.0919 68.4202 98.3218 68.8724 99.7918C69.3245 101.262 69.1753 102.852 68.4576 104.212C67.7398 105.571 66.5123 106.59 65.0451 107.043C63.5778 107.496 61.9911 107.346 60.6338 106.627L56.8479 104.62V110.2C56.8479 111.738 56.238 113.214 55.1524 114.301C54.0667 115.389 52.5943 116 51.059 116C49.5237 116 48.0512 115.389 46.9656 114.301C45.88 113.214 45.2701 111.738 45.2701 110.2V104.62L41.4841 106.627C40.8121 106.983 40.0766 107.203 39.3197 107.275C38.5629 107.346 37.7994 107.267 37.0729 107.043C36.3464 106.818 35.6711 106.453 35.0856 105.967C34.5 105.481 34.0158 104.885 33.6604 104.212C33.305 103.538 33.0854 102.801 33.0142 102.043C32.9431 101.285 33.0217 100.52 33.2456 99.7918C33.4695 99.064 33.8342 98.3874 34.3191 97.8007C34.804 97.2141 35.3994 96.7289 36.0715 96.3728L45.2701 91.5008V80.4692C41.1945 79.4137 37.4837 77.2639 34.5374 74.2516L24.9972 79.7732L25.3851 90.19C25.4132 90.9513 25.2914 91.7107 25.0266 92.4248C24.7618 93.1389 24.3593 93.7938 23.8419 94.352C23.3245 94.9103 22.7024 95.3609 22.0112 95.6783C21.3199 95.9957 20.5731 96.1735 19.8133 96.2017C19.0534 96.2299 18.2955 96.1078 17.5827 95.8425C16.87 95.5772 16.2164 95.1739 15.6592 94.6555C15.102 94.1371 14.6522 93.5139 14.3354 92.8213C14.0187 92.1288 13.8412 91.3805 13.813 90.6192L13.6567 86.333L8.83457 89.117C8.17558 89.5255 7.44145 89.7972 6.67568 89.9162C5.90992 90.0351 5.12812 89.9988 4.37662 89.8094C3.62513 89.6199 2.91924 89.2813 2.3008 88.8135C1.68236 88.3457 1.16396 87.7582 0.77633 87.0859C0.3887 86.4137 0.139728 85.6702 0.0441773 84.8998C-0.0513738 84.1293 0.00844049 83.3475 0.220072 82.6006C0.431704 81.8537 0.790846 81.157 1.27621 80.5518C1.76157 79.9466 2.36328 79.4451 3.04565 79.0772L7.86782 76.2874L4.23817 74.0022C2.97218 73.1686 2.0828 71.871 1.76087 70.3878C1.43894 68.9046 1.71013 67.3541 2.51624 66.069C3.32234 64.7839 4.59913 63.8666 6.0726 63.514C7.54607 63.1614 9.0988 63.4015 10.3976 64.1828L19.2083 69.7276L28.7427 64.2118C27.6166 60.1474 27.6166 55.8526 28.7427 51.7882L19.2083 46.2782L10.3976 51.8172C9.0988 52.5985 7.54607 52.8387 6.0726 52.486C4.59913 52.1334 3.32234 51.2161 2.51624 49.931C1.71013 48.6459 1.43894 47.0954 1.76087 45.6122C2.0828 44.129 2.97218 42.8314 4.23817 41.9978L7.86782 39.7126L3.04565 36.9286C1.7153 36.1595 0.744386 34.8924 0.346502 33.406C-0.051383 31.9196 0.156353 30.3358 0.924012 29.0029C1.69167 27.67 2.95637 26.6972 4.43989 26.2986C5.9234 25.8999 7.50422 26.1081 8.83457 26.8772L13.6567 29.667L13.813 25.375C13.8706 23.8375 14.5354 22.3859 15.6612 21.3395C16.2187 20.8214 16.8725 20.4184 17.5854 20.1534C18.2983 19.8885 19.0563 19.7668 19.8162 19.7954C20.576 19.824 21.3228 20.0022 22.0138 20.3199C22.7049 20.6376 23.3268 21.0886 23.8439 21.6471C24.361 22.2056 24.7633 22.8607 25.0277 23.575C25.2922 24.2893 25.4136 25.0487 25.3851 25.81L24.9972 36.2268L34.5374 41.7484C37.4837 38.7361 41.1945 36.5863 45.2701 35.5308V24.4992L36.0715 19.6272C34.7142 18.9081 33.6977 17.6782 33.2456 16.2082C32.7934 14.7381 32.9426 13.1483 33.6604 11.7885C34.3781 10.4287 35.6056 9.41023 37.0729 8.9572C38.5401 8.50417 40.1269 8.65367 41.4841 9.3728L45.2701 11.3796V5.8C45.2701 4.26174 45.88 2.78649 46.9656 1.69878C48.0512 0.611069 49.5237 0 51.059 0ZM51.059 69.6C54.1296 69.6 57.0745 68.3779 59.2457 66.2024C61.417 64.027 62.6368 61.0765 62.6368 58C62.6368 54.9235 61.417 51.973 59.2457 49.7976C57.0745 47.6221 54.1296 46.4 51.059 46.4C47.9883 46.4 45.0435 47.6221 42.8722 49.7976C40.7009 51.973 39.4811 54.9235 39.4811 58C39.4811 61.0765 40.7009 64.027 42.8722 66.2024C45.0435 68.3779 47.9883 69.6 51.059 69.6Z" fill="black"/>
</svg>
