<svg width="331" height="270" viewBox="0 0 331 270" fill="none" xmlns="http://www.w3.org/2000/svg">
<path d="M91.01 120.366V150.458H239.793V120.366C239.793 92.3812 258.838 69.0602 284.428 62.2896V45.1374C284.428 20.3118 264.343 0 239.793 0H91.01C66.4608 0 46.375 20.3118 46.375 45.1374V62.2896C71.9657 69.0602 91.01 92.3812 91.01 120.366Z" fill="white"/>
<path d="M300.729 89.6562C284.189 89.6562 270.656 103.182 270.656 119.714V179.828H60.1457V119.714C60.1457 103.182 46.6129 89.6562 30.0729 89.6562C13.5328 89.6562 0 103.182 0 119.714V194.857C0 219.654 20.2992 239.943 45.1093 239.943V254.971C45.1093 263.237 51.8757 270 60.1457 270C68.4158 270 75.1822 263.237 75.1822 254.971V239.943H255.619V254.971C255.619 263.237 262.386 270 270.656 270C278.926 270 285.692 263.237 285.692 254.971V239.943C310.502 239.943 330.802 219.654 330.802 194.857V119.714C330.802 103.182 317.269 89.6562 300.729 89.6562Z" fill="white"/>
</svg>
