<svg width="294" height="443" viewBox="0 0 294 443" fill="none" xmlns="http://www.w3.org/2000/svg">
<g id="theBarrel">
<g id="barrel">
<path id="Vector" d="M281.037 15.6318H12.7939V442.136H281.037V15.6318Z" fill="#ED9C00"/>
<path id="Vector_2" d="M281.036 420.493H12.7935V442.136H281.036V420.493Z" fill="#6D4800"/>
<path id="Vector_3" d="M270.18 0H23.6501C17.6571 0 12.7939 4.8595 12.7939 10.8562V31.2632H281.037V10.8562C281.037 4.8595 276.173 0 270.18 0Z" fill="#6D4800"/>
<path id="Vector_4" d="M278.225 71.1816H15.6061C6.98764 71.1816 0 78.1693 0 86.7877V86.8426C0 95.461 6.98764 102.449 15.6061 102.449H278.225C286.843 102.449 293.831 95.461 293.831 86.8426V86.7877C293.831 78.1693 286.843 71.1816 278.225 71.1816Z" fill="#6D4800"/>
<path id="Vector_5" d="M278.225 160.649H15.6061C6.98764 160.649 0 167.636 0 176.255V176.306C0 184.925 6.98764 191.912 15.6061 191.912H278.225C286.843 191.912 293.831 184.925 293.831 176.306V176.255C293.831 167.636 286.843 160.649 278.225 160.649Z" fill="#6D4800"/>
<path id="Vector_6" d="M278.225 250.114H15.6061C6.98764 250.114 0 257.101 0 265.72V265.775C0 274.393 6.98764 281.381 15.6061 281.381H278.225C286.843 281.381 293.831 274.393 293.831 265.775V265.72C293.831 257.101 286.843 250.114 278.225 250.114Z" fill="#6D4800"/>
<path id="Vector_7" d="M278.225 339.582H15.6061C6.98764 339.582 0 346.569 0 355.188V355.239C0 363.861 6.98764 370.845 15.6061 370.845H278.225C286.843 370.845 293.831 363.861 293.831 355.239V355.188C293.831 346.569 286.843 339.582 278.225 339.582Z" fill="#6D4800"/>
<path id="Vector_8" d="M268.473 87.0728H159.834C157.764 87.0728 156.086 85.3944 156.086 83.3285C156.086 81.2589 157.764 79.5806 159.834 79.5806H268.473C270.542 79.5806 272.221 81.2589 272.221 83.3285C272.221 85.3944 270.542 87.0728 268.473 87.0728Z" fill="#FFF3DB"/>
<path id="Vector_9" d="M268.473 177.231H241.225C239.155 177.231 237.48 175.553 237.48 173.483C237.48 171.418 239.155 169.739 241.225 169.739H268.473C270.543 169.739 272.221 171.418 272.221 173.483C272.221 175.553 270.543 177.231 268.473 177.231Z" fill="#FFF3DB"/>
<path id="Vector_10" d="M268.473 267.39H241.225C239.155 267.39 237.48 265.712 237.48 263.642C237.48 261.576 239.155 259.898 241.225 259.898H268.473C270.543 259.898 272.221 261.576 272.221 263.642C272.221 265.712 270.543 267.39 268.473 267.39Z" fill="#FFF3DB"/>
<path id="Vector_11" d="M268.473 357.549H159.834C157.764 357.549 156.086 355.871 156.086 353.801C156.086 351.732 157.764 350.057 159.834 350.057H268.473C270.542 350.057 272.221 351.732 272.221 353.801C272.221 355.871 270.542 357.549 268.473 357.549Z" fill="#FFF3DB"/>
</g>
<path id="barrelIsi" d="M263.143 56.0196C263.143 51.1681 261.216 46.5196 257.787 43.0897C254.359 39.663 249.709 37.7354 244.859 37.7354H48.1208C43.2709 37.7354 38.6214 39.663 35.193 43.0897C31.7647 46.5196 29.8374 51.1681 29.8374 56.0196V395.457C29.8374 400.309 31.7647 404.957 35.193 408.387C38.6214 411.814 43.2709 413.742 48.1208 413.742H244.859C249.709 413.742 254.359 411.814 257.787 408.387C261.216 404.957 263.143 400.309 263.143 395.457V56.0196Z" fill="white"/>
</g>
</svg>
