<svg width="62" height="108" viewBox="0 0 62 108" fill="none" xmlns="http://www.w3.org/2000/svg">
<path id="thermo" d="M38.75 81C38.75 84.2143 37.6198 86.9464 35.3594 89.1964C33.099 91.4464 30.3542 92.5714 27.125 92.5714C23.8958 92.5714 21.151 91.4464 18.8906 89.1964C16.6302 86.9464 15.5 84.2143 15.5 81C15.5 78.5893 16.2064 76.3795 17.6191 74.3705C19.0319 72.3616 20.9089 70.9353 23.25 70.0915V30.8571H31V70.0915C33.3411 70.9353 35.2181 72.3616 36.6309 74.3705C38.0436 76.3795 38.75 78.5893 38.75 81ZM46.5 81C46.5 77.9062 45.8138 75.0134 44.4414 72.3214C43.069 69.6295 41.1719 67.3795 38.75 65.5714V19.2857C38.75 16.0714 37.6198 13.3393 35.3594 11.0893C33.099 8.83929 30.3542 7.71429 27.125 7.71429C23.8958 7.71429 21.151 8.83929 18.8906 11.0893C16.6302 13.3393 15.5 16.0714 15.5 19.2857V65.5714C13.0781 67.3795 11.181 69.6295 9.80859 72.3214C8.4362 75.0134 7.75 77.9062 7.75 81C7.75 86.3438 9.63704 90.894 13.4111 94.6507C17.1852 98.4074 21.7565 100.286 27.125 100.286C32.4935 100.286 37.0648 98.4074 40.8389 94.6507C44.613 90.894 46.5 86.3438 46.5 81ZM54.25 81C54.25 88.433 51.596 94.7913 46.2881 100.075C40.9801 105.358 34.5924 108 27.125 108C19.6576 108 13.2699 105.358 7.96191 100.075C2.65397 94.7913 0 88.433 0 81C0 73.6875 2.58333 67.3996 7.75 62.1362V19.2857C7.75 13.942 9.63704 9.39174 13.4111 5.63504C17.1852 1.87835 21.7565 0 27.125 0C32.4935 0 37.0648 1.87835 40.8389 5.63504C44.613 9.39174 46.5 13.942 46.5 19.2857V62.1362C51.6667 67.3996 54.25 73.6875 54.25 81ZM62 46.2857V54H50.375V46.2857H62ZM62 30.8571V38.5714H50.375V30.8571H62ZM62 15.4286V23.1429H50.375V15.4286H62Z" fill="black"/>
</svg>
