<svg width="47" height="42" viewBox="0 0 47 42" fill="none" xmlns="http://www.w3.org/2000/svg">
<path id="Vector" d="M43.2895 34.5882C44.2424 34.5887 45.1586 34.9553 45.8482 35.6121C46.5379 36.2688 46.9481 37.1654 46.9939 38.116C47.0397 39.0666 46.7175 39.9984 46.0942 40.7183C45.4709 41.4381 44.5941 41.8909 43.6457 41.9827L43.2895 42H3.71053C2.75762 41.9995 1.84142 41.6329 1.15178 40.9762C0.462137 40.3194 0.0519176 39.4228 0.0061242 38.4722C-0.0396692 37.5216 0.282474 36.5898 0.905802 35.87C1.52913 35.1501 2.40586 34.6974 3.35432 34.6055L3.71053 34.5882H43.2895ZM43.2895 17.2941C44.2736 17.2941 45.2174 17.6846 45.9132 18.3795C46.6091 19.0745 47 20.0171 47 21C47 21.9829 46.6091 22.9255 45.9132 23.6205C45.2174 24.3154 44.2736 24.7059 43.2895 24.7059H3.71053C2.72643 24.7059 1.78265 24.3154 1.08679 23.6205C0.390929 22.9255 0 21.9829 0 21C0 20.0171 0.390929 19.0745 1.08679 18.3795C1.78265 17.6846 2.72643 17.2941 3.71053 17.2941H43.2895ZM43.2895 0C44.2736 0 45.2174 0.39044 45.9132 1.08543C46.6091 1.78042 47 2.72302 47 3.70588C47 4.68874 46.6091 5.63135 45.9132 6.32634C45.2174 7.02133 44.2736 7.41176 43.2895 7.41176H3.71053C2.72643 7.41176 1.78265 7.02133 1.08679 6.32634C0.390929 5.63135 0 4.68874 0 3.70588C0 2.72302 0.390929 1.78042 1.08679 1.08543C1.78265 0.39044 2.72643 0 3.71053 0H43.2895Z" fill="#8B0000"/>
</svg>
