<svg width="28" height="29" viewBox="0 0 28 29" fill="none" xmlns="http://www.w3.org/2000/svg">
<path d="M28 25.3889V3.61111C28 1.9 26.6 0.5 24.8889 0.5H3.11111C1.4 0.5 0 1.9 0 3.61111V25.3889C0 27.1 1.4 28.5 3.11111 28.5H24.8889C26.6 28.5 28 27.1 28 25.3889ZM9.17778 17.58L12.4444 21.5156L17.2667 15.3089C17.5778 14.9044 18.2 14.9044 18.5111 15.3244L23.9711 22.6044C24.0578 22.72 24.1106 22.8574 24.1235 23.0013C24.1365 23.1451 24.1092 23.2898 24.0446 23.4189C23.98 23.5481 23.8807 23.6568 23.7578 23.7327C23.6349 23.8087 23.4933 23.8489 23.3489 23.8489H4.69778C4.04444 23.8489 3.68667 23.1022 4.09111 22.5889L7.96444 17.6111C8.26 17.2067 8.85111 17.1911 9.17778 17.58Z" fill="black"/>
</svg>
